<svg xmlns="http://www.w3.org/2000/svg" width="40" height="40" viewBox="0 0 40 40" fill="none"><path d="M21.3333 32.6667C21.7558 32.9837 22.2476 33.1956 22.7681 33.2852C23.2886 33.3747 23.823 33.3393 24.3271 33.1818C24.8313 33.0243 25.2908 32.7493 25.6678 32.3794C26.0448 32.0094 26.3285 31.5552 26.4955 31.0542C26.6626 30.5531 26.7081 30.0195 26.6285 29.4974C26.5488 28.9753 26.3462 28.4795 26.0374 28.051C25.7286 27.6226 25.3223 27.2736 24.8522 27.0329C24.382 26.7923 23.8614 26.6667 23.3333 26.6667H3.33325" stroke="#F9AB04" stroke-width="3.33333" stroke-linecap="round" stroke-linejoin="round"></path><path d="M29.1666 13.3334C29.5927 12.7652 30.157 12.3154 30.8059 12.0266C31.4548 11.7379 32.1667 11.6198 32.8741 11.6836C33.5815 11.7474 34.2608 11.9909 34.8476 12.3911C35.4343 12.7913 35.9091 13.3348 36.2267 13.97C36.5443 14.6053 36.6943 15.3112 36.6624 16.0207C36.6304 16.7302 36.4177 17.4198 36.0443 18.024C35.6709 18.6281 35.1493 19.1268 34.5289 19.4727C33.9086 19.8185 33.2102 20.0001 32.4999 20.0001H3.33325" stroke="#F9AB04" stroke-width="3.33333" stroke-linecap="round" stroke-linejoin="round"></path><path d="M16.3333 7.33342C16.7558 7.01651 17.2476 6.80455 17.7681 6.715C18.2886 6.62546 18.823 6.66089 19.3271 6.81837C19.8313 6.97585 20.2908 7.25089 20.6678 7.6208C21.0448 7.99071 21.3285 8.44492 21.4955 8.94599C21.6626 9.44706 21.7081 9.98064 21.6285 10.5028C21.5488 11.0249 21.3462 11.5206 21.0374 11.9491C20.7286 12.3776 20.3223 12.7265 19.8522 12.9672C19.382 13.2079 18.8614 13.3334 18.3333 13.3334H3.33325" stroke="#F9AB04" stroke-width="3.33333" stroke-linecap="round" stroke-linejoin="round"></path></svg>