<svg xmlns="http://www.w3.org/2000/svg" width="40" height="40" viewBox="0 0 40 40" fill="none"><path d="M6.66674 23.3332C6.35134 23.3343 6.04212 23.2458 5.77499 23.0782C5.50786 22.9105 5.29379 22.6705 5.15765 22.386C5.02151 22.1015 4.96889 21.7842 5.0059 21.471C5.04291 21.1577 5.16804 20.8615 5.36674 20.6165L21.8667 3.61653C21.9905 3.47367 22.1592 3.37713 22.345 3.34275C22.5309 3.30838 22.7229 3.33822 22.8896 3.42737C23.0563 3.51652 23.1877 3.65969 23.2623 3.83338C23.3369 4.00706 23.3502 4.20094 23.3001 4.3832L20.1001 14.4165C20.0057 14.6691 19.974 14.9407 20.0077 15.2082C20.0414 15.4757 20.1395 15.731 20.2936 15.9522C20.4476 16.1735 20.653 16.3541 20.8922 16.4785C21.1314 16.6029 21.3971 16.6674 21.6667 16.6665H33.3334C33.6488 16.6655 33.958 16.7539 34.2251 16.9216C34.4923 17.0892 34.7063 17.3293 34.8425 17.6138C34.9786 17.8983 35.0312 18.2156 34.9942 18.5288C34.9572 18.842 34.8321 19.1383 34.6334 19.3832L18.1334 36.3832C18.0096 36.5261 17.841 36.6226 17.6551 36.657C17.4692 36.6913 17.2772 36.6615 17.1105 36.5724C16.9438 36.4832 16.8124 36.34 16.7378 36.1663C16.6633 35.9927 16.6499 35.7988 16.7001 35.6165L19.9001 25.5832C19.9944 25.3307 20.0261 25.059 19.9924 24.7915C19.9587 24.524 19.8606 24.2687 19.7066 24.0475C19.5525 23.8262 19.3471 23.6457 19.1079 23.5213C18.8688 23.3969 18.603 23.3323 18.3334 23.3332H6.66674Z" stroke="#F9AB04" stroke-width="3.33333" stroke-linecap="round" stroke-linejoin="round"></path></svg>