<svg xmlns="http://www.w3.org/2000/svg" width="30" height="29" viewBox="0 0 30 29" fill="none"><path d="M14.9852 28.6598C23.2616 28.6598 29.9712 22.2668 29.9712 14.3812C29.9712 6.4962 23.2616 0.103516 14.9852 0.103516C6.70876 0.103516 0 6.4962 0 14.3812C0 22.2668 6.70876 28.6598 14.9852 28.6598Z" fill="#EC3A38"></path><path d="M17.8947 14.3886L12.9886 17.1342V11.6426L17.8947 14.3886ZM22.4782 16.9342V11.8291C22.4782 11.8291 22.4782 9.36835 19.8952 9.36835H10.0743C10.0743 9.36835 7.49304 9.36835 7.49304 11.8291V16.9341C7.49304 16.9341 7.49304 19.3945 10.0743 19.3945H19.8953C19.8953 19.3945 22.4782 19.3945 22.4782 16.9342Z" fill="white"></path></svg>