<svg xmlns="http://www.w3.org/2000/svg" width="50" height="50" viewBox="0 0 50 50" fill="none"><path d="M24.9258 6.74609C18.1261 6.74609 12.5928 12.1284 12.5928 18.7437C12.5928 29.5765 23.9487 42.1069 24.432 42.6351L24.927 43.1771L25.4206 42.6341C25.905 42.1024 37.2579 29.4957 37.2579 18.7435C37.2577 12.1284 31.7257 6.74609 24.9258 6.74609ZM24.9239 41.2145C22.718 38.6493 13.9157 27.8404 13.9157 18.7437C13.9157 12.8383 18.8559 8.03392 24.9258 8.03392C30.9949 8.03392 35.9338 12.8383 35.9338 18.7437C35.9338 27.7682 27.1284 38.6366 24.9239 41.2145ZM25.0685 14.2945C22.4685 14.2945 20.3528 16.3533 20.3528 18.8838C20.3528 21.4149 22.4685 23.4735 25.0685 23.4735C27.6694 23.4735 29.785 21.4149 29.785 18.8838C29.7852 16.3533 27.6694 14.2945 25.0685 14.2945ZM25.0685 22.1856C23.1992 22.1856 21.6759 20.7046 21.6759 18.8836C21.6759 17.0643 23.1991 15.5829 25.0685 15.5829C26.9397 15.5829 28.4621 17.0643 28.4621 18.8836C28.4621 20.7046 26.9397 22.1856 25.0685 22.1856Z" fill="#F9AB04"></path></svg>