<svg xmlns="http://www.w3.org/2000/svg" width="60" height="60" viewBox="0 0 60 60" fill="none"><path d="M48.75 7.5H11.25C9 7.5 7.5 9 7.5 11.25V48.75C7.5 51 9 52.5 11.25 52.5H37.125H39H39.75C37.5 52.5 35.25 51.75 33 50.625H23.25V42H27.375C27.375 41.25 27.375 40.875 27 40.125H23.25V30.75H30.75C31.5 30 32.25 29.25 33 28.875H23.25V20.625H37.5V27C38.25 27 38.625 27 39.375 26.625V20.625H51V28.875H46.875C47.625 29.25 48.375 30 49.125 30.75H51V33C51.75 35.25 52.5 37.5 52.5 39.75V11.25C52.5 9 51 7.5 48.75 7.5ZM21.375 50.625H13.125C10.875 50.625 9.375 49.125 9.375 46.875V42H21.375V50.625ZM21.375 40.125H9.375V30.75H21.375V40.125ZM21.375 29.25H9.375V20.625H21.375V29.25ZM50.625 18.75H9.375V13.125C9.375 10.875 10.875 9.375 13.125 9.375H46.875C49.125 9.375 50.625 10.875 50.625 13.125V18.75Z" fill="#221816"></path><path d="M39.75 28.875C33.375 28.875 28.5 33.75 28.5 40.125C28.5 46.5 33.375 51.375 39.75 51.375C46.125 51.375 51 46.5 51 40.125C51 33.75 46.125 28.875 39.75 28.875ZM39.75 49.5C34.5 49.5 30.375 45.375 30.375 40.125C30.375 34.875 34.5 30.75 39.75 30.75C45 30.75 49.125 34.875 49.125 40.125C49.125 45 45 49.5 39.75 49.5Z" fill="#221816"></path><path d="M40.875 46.125V47.625H39.75V46.125C37.125 46.125 36 44.625 35.25 42L37.125 41.625C37.5 43.5 38.25 44.625 39.75 44.625V40.125C37.125 39.75 35.625 38.25 35.625 36.375C35.625 34.125 37.125 33 39.75 33V31.875H40.875V33.375C43.125 33.75 44.25 34.875 44.625 36.75L43.125 37.125C42.75 35.625 42 34.875 40.875 34.875V39C43.875 39.75 45 40.875 45 42.75C44.625 45 43.5 46.125 40.875 46.125ZM39.75 38.625V34.5C38.25 34.5 37.5 35.25 37.5 36.375C37.5 37.5 38.25 38.25 39.75 38.625ZM40.875 40.5V45C42.375 45 43.125 44.25 43.125 42.75C43.125 41.625 42.375 40.875 40.875 40.5Z" fill="#221816"></path></svg>