<svg xmlns="http://www.w3.org/2000/svg" width="60" height="60" viewBox="0 0 60 60" fill="none"><g clip-path="url(#clip0_41_13)"><path d="M46.0196 55.0572H42.0829C41.7697 55.0572 41.4694 54.9327 41.248 54.7112C41.0265 54.4898 40.9021 54.1894 40.9021 53.8762C40.9021 53.563 41.0265 53.2627 41.248 53.0412C41.4694 52.8197 41.7697 52.6953 42.0829 52.6952H46.0196C46.1747 52.6952 46.3283 52.7257 46.4716 52.7851C46.6149 52.8444 46.7451 52.9314 46.8548 53.041C46.9645 53.1507 47.0515 53.2809 47.1109 53.4242C47.1702 53.5675 47.2008 53.7211 47.2008 53.8762C47.2008 54.0313 47.1702 54.1849 47.1109 54.3282C47.0515 54.4715 46.9645 54.6017 46.8548 54.7114C46.7451 54.8211 46.6149 54.9081 46.4716 54.9674C46.3283 55.0267 46.1747 55.0573 46.0196 55.0572ZM34.0718 55.0572H14.1523C13.9972 55.0573 13.8436 55.0267 13.7003 54.9674C13.5569 54.9081 13.4267 54.8211 13.317 54.7114C13.2073 54.6017 13.1203 54.4715 13.061 54.3282C13.0016 54.1849 12.971 54.0313 12.971 53.8762C12.971 53.7211 13.0016 53.5675 13.061 53.4242C13.1203 53.2809 13.2073 53.1507 13.317 53.041C13.4267 52.9314 13.5569 52.8444 13.7003 52.7851C13.8436 52.7257 13.9972 52.6952 14.1523 52.6952H34.0718C34.2269 52.6952 34.3805 52.7257 34.5238 52.7851C34.6671 52.8444 34.7973 52.9314 34.907 53.041C35.0167 53.1507 35.1037 53.2809 35.1631 53.4242C35.2225 53.5675 35.253 53.7211 35.253 53.8762C35.253 54.0313 35.2225 54.1849 35.1631 54.3282C35.1037 54.4715 35.0167 54.6017 34.907 54.7114C34.7973 54.8211 34.6671 54.9081 34.5238 54.9674C34.3805 55.0267 34.2269 55.0573 34.0718 55.0572ZM48.1355 47.0363H12.5087C12.2594 47.036 12.0166 46.9568 11.8151 46.81C11.6136 46.6633 11.4636 46.4566 11.3868 46.2194L11.0522 45.2352L5.99354 28.0222C5.76719 27.2742 5.55067 26.5263 5.32431 25.7881L5.24558 25.5323C5.18526 25.3316 5.17898 25.1185 5.22736 24.9146C5.27575 24.7107 5.37709 24.5231 5.52114 24.3709L5.59988 24.2725C5.7478 24.0354 5.95918 23.8445 6.21006 23.7214C6.38173 23.6442 6.56916 23.6084 6.75722 23.6169C6.94527 23.6255 7.12868 23.6781 7.29264 23.7706L14.5164 27.9435L15.3431 28.4552L17.715 29.8527C17.8786 29.9725 18.0669 30.0541 18.2661 30.0916C18.4654 30.129 18.6705 30.1214 18.8664 30.0693C19.043 30.0172 19.2065 29.9279 19.3457 29.8073C19.4849 29.6868 19.5966 29.5378 19.6734 29.3705L26.7988 16.5763L28.1274 14.1947C28.0925 14.0478 28.0876 13.8954 28.1129 13.7466C28.1383 13.5978 28.1934 13.4556 28.2751 13.3286C28.3695 13.1518 28.512 13.0053 28.6862 12.9061C28.8603 12.8068 29.059 12.7588 29.2592 12.7676C29.338 12.7676 29.7218 12.8267 30.1351 12.8956L31.011 13.0432C31.2139 13.0509 31.4113 13.1112 31.5838 13.2181C31.7563 13.3251 31.8981 13.4751 31.9952 13.6534L33.688 16.6944C35.9909 20.8279 38.2873 24.9614 40.5771 29.0949C40.9216 29.715 41.207 30.0004 41.5613 30.0791C42.0512 30.1313 42.5428 29.9978 42.9391 29.7051L48.2241 26.5361C49.0705 26.0243 49.8184 25.5519 50.5762 25.1287L52.8201 23.7903C52.9958 23.6911 53.1941 23.639 53.3959 23.639C53.5976 23.639 53.7959 23.6911 53.9716 23.7903H54.1094C54.2536 23.8258 54.3951 23.8719 54.5326 23.9281C54.7992 24.0399 55.0145 24.247 55.1364 24.5091C55.2583 24.7712 55.2782 25.0693 55.192 25.3453L54.2078 28.721C53.7551 30.2858 53.3024 31.8309 52.8103 33.4745L51.0979 39.2712L49.6019 44.9597L49.2771 46.1604C49.2084 46.4109 49.0597 46.6321 48.8536 46.7902C48.6475 46.9484 48.3953 47.0348 48.1355 47.0363ZM13.3649 44.6743H47.2399C47.2399 44.4971 47.3088 44.4184 47.3187 44.3692L48.8343 38.6315L50.5566 32.8052C51.029 31.1814 51.4817 29.6559 51.9246 28.1206L52.2985 26.8609L51.7868 27.1561L49.4445 28.5635L44.1989 31.7325C43.502 32.1943 42.6919 32.4564 41.8565 32.4903C41.5638 32.4904 41.2725 32.4507 40.9905 32.3722C40.4532 32.2069 39.9561 31.9317 39.5309 31.564C39.1056 31.1964 38.7614 30.7443 38.5202 30.2366C36.2271 26.0932 33.934 21.9696 31.6311 17.8262L30.2237 15.2969H30.1745L28.8262 17.7377C26.4937 21.9401 24.0727 26.2802 21.7008 30.5318C21.4697 30.9819 21.1473 31.3789 20.7541 31.6975C20.361 32.0161 19.9058 32.2492 19.4176 32.382C18.9193 32.51 18.4001 32.5341 17.8922 32.4529C17.3843 32.3716 16.8985 32.1867 16.4651 31.9096L14.1031 30.4826L13.3059 30.0004L8.13902 27.0479C8.13902 27.166 8.20792 27.2841 8.24728 27.4022L13.3649 44.6743Z" fill="#221816"></path><path d="M4.92083 25.9356C3.94758 25.9356 2.99619 25.647 2.18696 25.1063C1.37774 24.5656 0.747024 23.7971 0.374578 22.8979C0.00213212 21.9987 -0.0953167 21.0093 0.0945545 20.0548C0.284426 19.1002 0.753089 18.2234 1.44128 17.5352C2.12947 16.847 3.00628 16.3784 3.96082 16.1885C4.91537 15.9986 5.90479 16.0961 6.80395 16.4685C7.70311 16.841 8.47164 17.4717 9.01235 18.2809C9.55306 19.0901 9.84166 20.0415 9.84166 21.0148C9.84688 21.6489 9.72701 22.2777 9.48889 22.8654C9.25078 23.4531 8.8991 23.9881 8.45398 24.4397C7.99526 24.9129 7.44614 25.2892 6.83921 25.5462C6.23228 25.8032 5.57992 25.9356 4.92083 25.9356ZM4.92083 18.0623C4.13778 18.0623 3.3868 18.3734 2.8331 18.9271C2.2794 19.4808 1.96833 20.2317 1.96833 21.0148C1.96833 21.7978 2.2794 22.5488 2.8331 23.1025C3.3868 23.6562 4.13778 23.9673 4.92083 23.9673C5.31714 23.9683 5.70959 23.8895 6.07481 23.7357C6.44003 23.5818 6.77053 23.356 7.04663 23.0717C7.58191 22.5254 7.87914 21.7894 7.87333 21.0246C7.87462 20.6361 7.79921 20.2511 7.65141 19.8917C7.50361 19.5324 7.28634 19.2057 7.01205 18.9305C6.73775 18.6553 6.41184 18.437 6.05298 18.288C5.69412 18.139 5.30939 18.0623 4.92083 18.0623ZM30.2237 14.785C29.0885 14.7851 27.9883 14.3926 27.1093 13.6742C26.2304 12.9558 25.6269 11.9556 25.4011 10.8431C25.1752 9.73066 25.341 8.57431 25.8702 7.57005C26.3994 6.56578 27.2596 5.77539 28.3049 5.33279C29.3503 4.8902 30.5165 4.82263 31.6059 5.14154C32.6954 5.46045 33.6411 6.14622 34.2828 7.08264C34.9244 8.01906 35.2226 9.14853 35.1268 10.2797C35.0309 11.4108 34.547 12.474 33.7569 13.2891C33.2982 13.7623 32.749 14.1386 32.1421 14.3956C31.5352 14.6526 30.8828 14.785 30.2237 14.785ZM30.2237 6.91169C29.7367 6.91296 29.2575 7.0347 28.8289 7.26606C28.4003 7.49741 28.0356 7.8312 27.7673 8.23768C27.499 8.64416 27.3354 9.1107 27.2912 9.59573C27.2469 10.0808 27.3233 10.5692 27.5135 11.0175C27.7038 11.4659 28.002 11.8602 28.3816 12.1654C28.7612 12.4705 29.2104 12.677 29.6892 12.7665C30.1679 12.8559 30.6614 12.8255 31.1256 12.678C31.5897 12.5305 32.0102 12.2705 32.3495 11.9211C32.7542 11.5043 33.027 10.9775 33.1337 10.4064C33.2404 9.83539 33.1763 9.24557 32.9493 8.71081C32.7224 8.17605 32.3427 7.72011 31.8579 7.40009C31.3731 7.08007 30.8046 6.91018 30.2237 6.91169ZM55.1133 25.9356C54.14 25.9356 53.1886 25.647 52.3794 25.1063C51.5702 24.5656 50.9395 23.7971 50.567 22.8979C50.1946 21.9987 50.0971 21.0093 50.287 20.0548C50.4769 19.1002 50.9455 18.2234 51.6337 17.5352C52.3219 16.847 53.1987 16.3784 54.1533 16.1885C55.1078 15.9986 56.0972 16.0961 56.9964 16.4685C57.8955 16.841 58.6641 17.4717 59.2048 18.2809C59.7455 19.0901 60.0341 20.0415 60.0341 21.0148C60.0393 21.6489 59.9194 22.2777 59.6813 22.8654C59.4432 23.4531 59.0915 23.9881 58.6464 24.4397C58.1877 24.9129 57.6386 25.2892 57.0317 25.5462C56.4247 25.8032 55.7724 25.9356 55.1133 25.9356ZM55.1133 18.0623C54.6262 18.0636 54.1471 18.1853 53.7185 18.4167C53.2899 18.648 52.9252 18.9818 52.6569 19.3883C52.3886 19.7948 52.225 20.2613 52.1807 20.7463C52.1364 21.2313 52.2128 21.7198 52.4031 22.1681C52.5933 22.6165 52.8916 23.0108 53.2712 23.316C53.6508 23.6211 54.1 23.8276 54.5787 23.917C55.0575 24.0065 55.5509 23.9761 56.0151 23.8286C56.4793 23.6811 56.8998 23.4211 57.2391 23.0717C57.6438 22.6549 57.9166 22.1281 58.0232 21.557C58.1299 20.986 58.0658 20.3962 57.8389 19.8614C57.6119 19.3266 57.2323 18.8707 56.7475 18.5507C56.2626 18.2307 55.6942 18.0608 55.1133 18.0623Z" fill="#221816"></path></g><defs><clipPath id="clip0_41_13"><rect width="60" height="60" fill="white"></rect></clipPath></defs></svg>