<svg xmlns="http://www.w3.org/2000/svg" width="60" height="60" viewBox="0 0 60 60" fill="none"><g clip-path="url(#clip0_41_67)"><path d="M41.0983 11.4992C37.0605 8.23385 31.7645 6.96398 26.685 8.04659C19.5339 9.5798 14.1559 15.4961 13.2957 22.7584C12.4413 30.0206 16.2978 37.0313 22.8929 40.1855C23.6654 40.56 24.5958 40.244 24.9762 39.4715C25.3566 38.6991 25.0347 37.7686 24.2623 37.3882C18.8902 34.7958 15.7535 29.0785 16.4558 23.1505C17.158 17.2224 21.5411 12.3946 27.3696 11.1247C31.5362 10.2235 35.8842 11.2535 39.2081 13.9219C42.5905 16.6665 44.5041 20.8389 44.3754 25.1928C44.2467 29.5525 42.0931 33.602 38.5586 36.1418C36.3348 37.5755 34.9596 40.0216 34.8952 42.6667V43.6615L23.8351 45.6219C22.9748 45.698 22.3428 46.4588 22.4189 47.3131C22.495 48.1734 23.2557 48.8054 24.1101 48.7293H24.391L36.7562 46.4002L37.4408 46.1837L38.1255 45.2825V42.6726C38.1665 41.0574 38.9858 39.5593 40.3317 38.664C44.6563 35.5507 47.2838 30.6 47.436 25.2747C47.5764 19.9436 45.2356 14.8524 41.0983 11.4992Z" fill="#221816"></path><path d="M24.3265 53.9433C23.6711 53.9433 23.1269 53.4459 23.0684 52.7905C23.0391 52.4511 23.1386 52.1234 23.3551 51.8659C23.5716 51.6084 23.8759 51.4445 24.2095 51.4153H24.2212L36.4459 49.2442H36.4752L36.4986 49.2384C36.5688 49.2267 36.6449 49.2208 36.7151 49.2208C37.3413 49.2208 37.8679 49.6714 37.9733 50.2859C38.0903 50.9822 37.6222 51.6435 36.9258 51.7606L24.7069 53.9316H24.426C24.4026 53.9433 24.3616 53.9433 24.3265 53.9433ZM29.3768 60.0001C28.2005 60.0001 27.0243 59.7133 25.9768 59.1808C25.5672 58.7946 25.4618 58.1801 25.7252 57.6769C25.9417 57.2614 26.3689 57.0039 26.837 57.0039C26.9248 57.0039 27.0184 57.0156 27.1062 57.0332C27.7967 57.3784 28.5633 57.5598 29.3358 57.5598C30.12 57.5598 30.8983 57.3726 31.6005 57.0156L31.7058 56.9629L31.741 56.8634C31.9165 56.7757 32.1038 56.7347 32.2969 56.7347C32.531 56.7347 32.7592 56.7991 32.9582 56.922C33.3619 57.1736 33.5902 57.6184 33.5492 58.0924C33.5141 58.5664 33.2156 58.9701 32.7768 59.1516L32.765 59.1574L32.7533 59.1633C31.7117 59.7016 30.5413 59.9942 29.3768 60.0001ZM1.25817 30.5648C0.561787 30.5648 0 30.003 0 29.3066C0 28.6103 0.561787 28.0485 1.25817 28.0485H4.36555C5.06193 28.0485 5.62372 28.6103 5.62372 29.3066C5.62372 30.003 5.06193 30.5648 4.36555 30.5648H1.25817ZM11.6805 13.0265C11.3411 13.0265 11.0251 12.8978 10.7851 12.6579L8.57895 10.4517C8.08739 9.96011 8.08739 9.15839 8.57895 8.66098C8.81888 8.42105 9.13489 8.2923 9.4743 8.2923C9.81371 8.2923 10.1297 8.42105 10.3696 8.66098L12.5758 10.8672C13.0674 11.3587 13.0674 12.1604 12.5758 12.6579C12.3359 12.8978 12.0199 13.0265 11.6805 13.0265ZM30.6466 5.69989C29.9503 5.69989 29.3885 5.1381 29.3885 4.44172V1.33434C29.3885 0.88374 29.6284 0.468252 30.0205 0.245878C30.2136 0.134691 30.4301 0.0761719 30.6466 0.0761719C30.869 0.0761719 31.0855 0.134691 31.2728 0.245878C31.659 0.468252 31.899 0.889592 31.899 1.33434V4.44172C31.899 4.77528 31.7702 5.09129 31.5303 5.33122C31.2962 5.57115 30.9802 5.69989 30.6466 5.69989ZM49.25 12.2599C48.9106 12.2599 48.5946 12.1312 48.3546 11.8912C47.8631 11.3997 47.8631 10.598 48.3546 10.1006L50.5608 7.89437C50.8007 7.65444 51.1167 7.5257 51.4562 7.5257C51.7956 7.5257 52.1116 7.65444 52.3515 7.89437C52.8431 8.38593 52.8431 9.18765 52.3515 9.68507L50.1453 11.8912C49.9054 12.1253 49.5894 12.2599 49.25 12.2599ZM55.5642 30.5648C54.8678 30.5648 54.3061 30.003 54.3061 29.3066C54.3061 28.6103 54.8678 28.0485 55.5642 28.0485H58.6716C59.368 28.0485 59.9298 28.6103 59.9298 29.3066C59.9298 30.003 59.368 30.5648 58.6716 30.5648H55.5642Z" fill="#221816"></path></g><defs><clipPath id="clip0_41_67"><rect width="60" height="60" fill="white"></rect></clipPath></defs></svg>