<svg xmlns="http://www.w3.org/2000/svg" width="60" height="60" viewBox="0 0 60 60" fill="none"><path d="M50.1329 14.4002H49.4999V11.6672C49.4999 9.02119 47.3459 6.86719 44.6999 6.86719H15.2999C12.6539 6.86719 10.4999 9.02119 10.4999 11.6672V14.4002H9.8669C7.22089 14.4002 5.06689 16.5542 5.06689 19.2002V48.6002C5.06689 51.2462 7.22089 53.4002 9.8669 53.4002H50.1329C52.7789 53.4002 54.9329 51.2462 54.9329 48.6002V19.2002C54.9329 16.5542 52.7789 14.4002 50.1329 14.4002ZM12.8999 11.6672C12.8999 10.3442 13.9769 9.26719 15.2999 9.26719H44.6999C46.0229 9.26719 47.0999 10.3442 47.0999 11.6672V14.4002H12.8999V11.6672ZM52.5329 48.6002C52.5329 49.9232 51.4559 51.0002 50.1329 51.0002H9.8669C8.5439 51.0002 7.46689 49.9232 7.46689 48.6002V19.2002C7.46689 17.8772 8.5439 16.8002 9.8669 16.8002H50.1329C51.4559 16.8002 52.5329 17.8772 52.5329 19.2002V48.6002Z" fill="#221816"></path><path d="M21.0421 49.8631C20.1991 49.8631 19.4461 49.3591 19.1221 48.5761C18.96 48.1906 18.9166 47.7654 18.9973 47.3551C19.0779 46.9447 19.2791 46.5677 19.5751 46.2721L21.2551 44.5921L19.5451 42.8821L17.8651 44.5621C17.5701 44.8579 17.1936 45.0591 16.7837 45.1398C16.3738 45.2205 15.9492 45.1771 15.5641 45.0151C15.1781 44.8543 14.849 44.5819 14.6186 44.2329C14.3883 43.884 14.2673 43.4742 14.2711 43.0561C14.2861 41.2741 14.9881 39.5971 16.2481 38.3371C18.0781 36.5071 20.7691 35.9041 23.1751 36.7141L32.5741 27.3151C31.8061 25.0021 32.3371 22.3891 34.0051 20.5831C35.2771 19.2091 37.0771 18.4171 38.9431 18.4111H38.9491C39.7921 18.4111 40.5451 18.9151 40.8691 19.6981C41.1991 20.4931 41.0221 21.3961 40.4161 22.0021L38.7361 23.6821L40.4461 25.3921L42.1261 23.7121C42.4211 23.4163 42.7976 23.2152 43.2075 23.1345C43.6173 23.0538 44.042 23.0972 44.4271 23.2591C44.813 23.4197 45.1421 23.692 45.372 24.0411C45.6019 24.3902 45.7221 24.8002 45.7171 25.2181C45.7065 26.9904 44.9958 28.6866 43.7401 29.9371C41.9131 31.7671 39.2161 32.3701 36.8131 31.5601L27.4201 40.9591C28.1881 43.2721 27.6571 45.8851 25.9891 47.6911C25.3587 48.3721 24.5951 48.9163 23.7456 49.2899C22.8962 49.6635 21.979 49.8586 21.0511 49.8631H21.0421ZM19.5451 40.3591C20.0851 40.3591 20.6221 40.5631 21.0331 40.9741L23.1631 43.1041C23.9821 43.9231 23.9821 45.2581 23.1631 46.0771L21.8581 47.3821C22.7611 47.2081 23.5831 46.7551 24.2251 46.0591C25.4281 44.7601 25.7101 42.8041 24.9301 41.1931L24.5581 40.4251L36.2911 28.6921L37.0621 29.0671C38.7331 29.8831 40.7371 29.5531 42.0511 28.2391C42.6721 27.6181 43.0831 26.8381 43.2481 25.9921L41.9401 27.3001C41.5441 27.6961 41.0161 27.9151 40.4521 27.9151C39.8881 27.9151 39.3631 27.6961 38.9641 27.3001L36.8341 25.1701C36.6383 24.9751 36.4831 24.7432 36.3775 24.4877C36.2719 24.2323 36.2181 23.9585 36.2191 23.6821C36.2187 23.4058 36.2728 23.1322 36.3783 22.8769C36.4838 22.6215 36.6387 22.3895 36.8341 22.1941L38.1391 20.8891C37.2361 21.0631 36.4141 21.5161 35.7691 22.2121C34.5661 23.5111 34.2841 25.4671 35.0641 27.0781L35.4361 27.8461L23.7031 39.5791L22.9321 39.2011C22.1177 38.803 21.1994 38.6689 20.3052 38.8173C19.4109 38.9657 18.5852 39.3893 17.9431 40.0291C17.3287 40.6419 16.9119 41.4244 16.7461 42.2761L18.0511 40.9711C18.4504 40.5804 18.9864 40.3608 19.5451 40.3591Z" fill="#221816"></path></svg>