<svg xmlns="http://www.w3.org/2000/svg" width="60" height="60" viewBox="0 0 60 60" fill="none"><path d="M13.4912 23.2537H29.5235V25.7884H13.4912V23.2537ZM32.7562 23.1616H37.6754V25.8902H32.7562V23.1616Z" fill="#221816"></path><path d="M47.6544 8.29736H18.8854C16.7384 8.29736 14.9936 10.0421 14.9936 12.1843V14.9953H12.1003C9.95325 14.9953 8.2085 16.74 8.2085 18.8822V47.6172C8.2085 49.7594 9.95325 51.5042 12.1003 51.5042H40.8692C43.0163 51.5042 44.761 49.7594 44.761 47.6172V44.8063H47.6544C49.8014 44.8063 51.5461 43.0615 51.5461 40.9193V12.1843C51.5461 10.0421 49.7965 8.29736 47.6544 8.29736ZM42.7109 47.6172C42.7109 48.6302 41.887 49.4589 40.8692 49.4589H12.1003C11.0825 49.4589 10.2586 48.635 10.2586 47.6172V30.6447H42.7109V47.6172ZM42.7109 28.2505H10.2586V18.8822C10.2586 17.8693 11.0825 17.0405 12.1003 17.0405H40.8692C41.887 17.0405 42.7109 17.8644 42.7109 18.8822V28.2505ZM49.4961 40.9193C49.4961 41.9323 48.6721 42.761 47.6544 42.761H44.761V18.8822C44.761 16.74 43.0163 14.9953 40.8692 14.9953H17.0437V12.1843C17.0437 11.1714 17.8725 10.3426 18.8854 10.3426H47.6544C48.6721 10.3426 49.4961 11.1665 49.4961 12.1843V40.9193Z" fill="#221816"></path></svg>