<svg xmlns="http://www.w3.org/2000/svg" width="70" height="70" viewBox="0 0 70 70" fill="none"><path d="M20.9741 13.0925C17.4482 13.8573 13.8899 17.4157 13.1251 20.9416C11.6602 27.7212 16.7806 33.7101 23.3075 33.7101H33.7427V33.2694V31.1175V22.8277H33.7297C33.4704 16.5212 27.6047 11.6601 20.9741 13.0925ZM31.1501 31.1175H23.3075C18.9389 31.1175 15.4065 27.5462 15.4649 23.1647C15.5232 18.9388 18.9714 15.4907 23.1973 15.4323C27.5788 15.374 31.1501 18.9064 31.1501 23.2749V31.1175Z" fill="#221816"></path><path d="M56.9203 20.9416C56.1555 17.4156 52.5972 13.8573 49.0713 13.0925C42.4472 11.6601 36.575 16.5212 36.3157 22.8342H36.3027V31.1175V33.2693V33.7101H46.7379C53.2583 33.7101 58.3851 27.7212 56.9203 20.9416ZM38.8953 23.2749C38.8953 18.9064 42.4666 15.374 46.8481 15.4323C51.074 15.4906 54.5222 18.9388 54.5805 23.1647C54.6388 27.5462 51.1064 31.1175 46.7379 31.1175H38.8953V23.2749Z" fill="#221816"></path><path d="M13.1251 49.0713C13.8899 52.5972 17.4482 56.1555 20.9741 56.9203C27.5982 58.3527 33.4704 53.4916 33.7297 47.1787H33.7427V38.8953V36.7435V36.3027H23.3075C16.7806 36.3027 11.6602 42.2916 13.1251 49.0713ZM31.1501 46.7379C31.1501 51.1064 27.5788 54.6388 23.1973 54.5805C18.9714 54.5222 15.5232 51.074 15.4649 46.8481C15.4065 42.4666 18.9389 38.8953 23.3075 38.8953H31.1501V46.7379Z" fill="#221816"></path><path d="M46.7379 36.3027H36.3027V36.7435V38.8953V47.1787H36.3157C36.5814 53.4916 42.4472 58.3527 49.0713 56.9203C52.5972 56.1555 56.1555 52.5972 56.9203 49.0713C58.3851 42.2916 53.2583 36.3027 46.7379 36.3027ZM54.5805 46.8481C54.5222 51.074 51.074 54.5222 46.8481 54.5805C42.4666 54.6388 38.8953 51.1064 38.8953 46.7379V38.8953H46.7379C51.1064 38.8953 54.6388 42.4666 54.5805 46.8481Z" fill="#221816"></path></svg>