<svg xmlns="http://www.w3.org/2000/svg" width="60" height="60" viewBox="0 0 60 60" fill="none"><path d="M30 3.75H29.6602C29.0977 3.76172 28.5352 3.78516 27.9785 3.82617L27.6504 3.85547C18.3457 4.68164 10.4414 10.3535 6.48047 18.334L6.33984 18.6211C5.87548 19.5817 5.47042 20.5699 5.12695 21.5801C5.09766 21.6797 5.0625 21.7852 5.02734 21.8848L4.83398 22.5059C4.65234 23.1211 4.48828 23.7539 4.35352 24.3926C4.30664 24.6035 4.25977 24.8145 4.21875 25.0312C3.90772 26.6692 3.75078 28.3327 3.75 30V30.3398C3.92578 43.8926 14.3613 54.9668 27.6504 56.1445L27.9785 56.1738C28.5352 56.2148 29.0977 56.2383 29.6602 56.25H30C30.9082 56.25 31.7988 56.2031 32.6836 56.1152L33.3457 56.0391C33.8906 55.9688 34.4355 55.8809 34.9688 55.7812L35.6074 55.6465C35.7188 55.6289 35.8242 55.5996 35.9297 55.5762C36.668 55.4062 37.4004 55.207 38.1152 54.9727L38.4199 54.873C48.6855 51.3984 56.1035 41.7422 56.25 30.3398V30C56.25 15.5039 44.4961 3.75 30 3.75ZM50.3027 38.5723C48.0646 43.8576 43.8576 48.0646 38.5723 50.3027C35.8584 51.4437 32.944 52.0314 30 52.0314C27.056 52.0314 24.1416 51.4437 21.4277 50.3027C16.1424 48.0646 11.9354 43.8576 9.69727 38.5723C8.55632 35.8584 7.96863 32.944 7.96863 30C7.96863 27.056 8.55632 24.1416 9.69727 21.4277C11.9354 16.1424 16.1424 11.9354 21.4277 9.69727C24.1416 8.55632 27.056 7.96863 30 7.96863C32.944 7.96863 35.8584 8.55632 38.5723 9.69727C43.8576 11.9354 48.0646 16.1424 50.3027 21.4277C51.4437 24.1416 52.0314 27.056 52.0314 30C52.0314 32.944 51.4437 35.8584 50.3027 38.5723ZM24.5039 15.5977C24.4821 15.5755 24.4561 15.5579 24.4274 15.5459C24.3988 15.5339 24.368 15.5277 24.3369 15.5277C24.3058 15.5277 24.2751 15.5339 24.2464 15.5459C24.2177 15.5579 24.1917 15.5755 24.1699 15.5977L21.5156 18.2461C21.4937 18.2674 21.4762 18.2929 21.4643 18.3211C21.4523 18.3493 21.4462 18.3796 21.4462 18.4102C21.4462 18.4408 21.4523 18.4711 21.4643 18.4992C21.4762 18.5274 21.4937 18.5529 21.5156 18.5742L32.8008 29.8359C32.8228 29.8572 32.8402 29.8827 32.8521 29.9109C32.8641 29.9391 32.8702 29.9694 32.8702 30C32.8702 30.0306 32.8641 30.0609 32.8521 30.0891C32.8402 30.1173 32.8228 30.1428 32.8008 30.1641L21.5156 41.4258C21.4937 41.4471 21.4762 41.4726 21.4643 41.5008C21.4523 41.5289 21.4462 41.5592 21.4462 41.5898C21.4462 41.6204 21.4523 41.6507 21.4643 41.6789C21.4762 41.7071 21.4937 41.7326 21.5156 41.7539L24.1699 44.4023C24.1917 44.4245 24.2177 44.4421 24.2464 44.4541C24.2751 44.4661 24.3058 44.4723 24.3369 44.4723C24.368 44.4723 24.3988 44.4661 24.4274 44.4541C24.4561 44.4421 24.4821 44.4245 24.5039 44.4023L35.9531 32.9824L38.2793 30.6621C38.3668 30.5755 38.4363 30.4724 38.4837 30.3587C38.5311 30.2451 38.5555 30.1231 38.5555 30C38.5555 29.8769 38.5311 29.7549 38.4837 29.6413C38.4363 29.5276 38.3668 29.4245 38.2793 29.3379L24.5039 15.5977Z" fill="#F9AB04"></path></svg>