<svg xmlns="http://www.w3.org/2000/svg" width="30" height="30" viewBox="0 0 30 30" fill="none"><path d="M20 10H10C9.625 10 9.375 10.25 9.375 10.625C9.375 11 9.625 11.25 10 11.25H20C20.375 11.25 20.625 11 20.625 10.625C20.625 10.25 20.375 10 20 10ZM20 15H10C9.625 15 9.375 15.25 9.375 15.625C9.375 16 9.625 16.25 10 16.25H20C20.375 16.25 20.625 16 20.625 15.625C20.625 15.25 20.375 15 20 15ZM20 20H10C9.625 20 9.375 20.25 9.375 20.625C9.375 21 9.625 21.25 10 21.25H20C20.375 21.25 20.625 21 20.625 20.625C20.625 20.25 20.375 20 20 20ZM13.125 6.25H16.875C17.9375 6.25 18.75 5.4375 18.75 4.375C18.75 3.3125 17.9375 2.5 16.875 2.5H13.125C12.0625 2.5 11.25 3.3125 11.25 4.375C11.25 5.4375 12.0625 6.25 13.125 6.25ZM13.125 3.75H16.875C17.25 3.75 17.5 4 17.5 4.375C17.5 4.75 17.25 5 16.875 5H13.125C12.75 5 12.5 4.75 12.5 4.375C12.5 4 12.75 3.75 13.125 3.75Z" fill="white"></path><path d="M21.875 3.75H20.625C20.25 3.75 20 4 20 4.375C20 4.75 20.25 5 20.625 5H21.875C22.9375 5 23.75 5.8125 23.75 6.875V23.75C23.75 24.8125 22.9375 25.625 21.875 25.625H8.125C7.0625 25.625 6.25 24.8125 6.25 23.75V6.875C6.25 5.8125 7.0625 5 8.125 5H9.375C9.75 5 10 4.75 10 4.375C10 4 9.75 3.75 9.375 3.75H8.125C6.375 3.75 5 5.125 5 6.875V23.75C5 25.5 6.375 26.875 8.125 26.875H21.875C23.625 26.875 25 25.5 25 23.75V6.875C25 5.125 23.625 3.75 21.875 3.75Z" fill="white"></path></svg>