<svg xmlns="http://www.w3.org/2000/svg" width="20" height="20" viewBox="0 0 20 20" fill="none"><path d="M10.031 19.8923C9.95352 19.8924 9.87715 19.8736 9.80846 19.8376C9.73978 19.8017 9.68082 19.7496 9.63664 19.6859L3.75026 11.1983C3.74382 11.189 3.73771 11.1796 3.73194 11.1698C3.45633 10.7053 3.23311 10.2116 3.06638 9.69785C2.83048 8.96911 2.71094 8.20964 2.71094 7.44024C2.71094 3.40384 5.99479 0.119965 10.0312 0.119965C10.9676 0.119965 11.907 0.346119 12.8232 0.792149C13.6572 1.19818 14.4592 1.78908 15.1425 2.50092C15.8083 3.1945 16.3619 4.00213 16.7434 4.83652C17.1411 5.70614 17.3513 6.6063 17.3513 7.43964C17.3513 8.20922 17.2317 8.96867 16.9959 9.69693C16.8331 10.1994 16.608 10.7005 16.3451 11.1462C16.3391 11.1562 16.3328 11.1661 16.3261 11.1757L10.4254 19.6859C10.3813 19.7496 10.3223 19.8017 10.2536 19.8376C10.1849 19.8736 10.1086 19.8923 10.031 19.8923ZM4.54887 10.6655L10.031 18.5701L15.5271 10.6435C15.7512 10.2613 15.9431 9.8321 16.0828 9.40121C16.2875 8.76872 16.3914 8.10871 16.3914 7.43967C16.3915 6.02986 15.6657 4.4321 14.4501 3.16566C13.1777 1.84011 11.5671 1.07988 10.0312 1.07988C6.52411 1.07988 3.67085 3.93314 3.67085 7.44026C3.67085 8.10913 3.7747 8.76916 3.97954 9.40196C4.12257 9.84268 4.31349 10.2664 4.54887 10.6655ZM10.0184 11.2664C8.12661 11.2664 6.5875 9.72729 6.5875 7.83546C6.5875 5.94363 8.12661 4.40452 10.0184 4.40452C11.9103 4.40452 13.4494 5.94363 13.4494 7.83546C13.4494 9.72729 11.9103 11.2664 10.0184 11.2664ZM10.0184 5.36442C8.65589 5.36442 7.5474 6.47293 7.5474 7.83546C7.5474 9.19799 8.65591 10.3065 10.0184 10.3065C11.381 10.3065 12.4895 9.19801 12.4895 7.83546C12.4895 6.47291 11.381 5.36442 10.0184 5.36442Z" fill="white"></path></svg>