<svg xmlns="http://www.w3.org/2000/svg" width="60" height="60" viewBox="0 0 60 60" fill="none"><path d="M4 55L8.70107 41.0986C6.59119 37.4773 5.47852 33.3381 5.47852 29.0941C5.47852 15.8085 16.3619 5 29.7393 5C33.0113 5 36.1872 5.63774 39.1787 6.89554C42.0672 8.10994 44.6617 9.84787 46.8901 12.0611C49.1186 14.2742 50.8686 16.8509 52.0914 19.7195C53.3578 22.6905 54 25.8446 54 29.0941C54 42.3796 43.1167 53.1882 29.7393 53.1882C25.7927 53.1882 21.8841 52.2266 18.4041 50.4033L4 55ZM29.7393 7.12261C17.5403 7.12261 7.61581 16.979 7.61581 29.0941C7.61581 33.1175 8.71117 37.0356 10.7834 40.4248L11.041 40.8461L7.37253 51.6942L18.6237 48.1037L19.0278 48.3256C22.2937 50.1181 25.9976 51.0656 29.7393 51.0656C41.9382 51.0656 51.8627 41.2093 51.8627 29.0941C51.8627 16.979 41.9382 7.12261 29.7393 7.12261ZM35.9544 41.703C34.3783 41.703 31.6658 40.6019 30.2646 39.9823C30.2465 39.983 30.2283 39.9833 30.21 39.9833V39.9581C30.026 39.8764 29.8426 39.7932 29.6599 39.7085C27.5092 38.7388 25.5916 37.3859 23.7974 35.5728C22.0606 33.8176 20.6212 31.814 19.4424 30.0856C17.8441 27.7503 17.0472 25.5529 17.0747 23.5555L17.0752 23.2852C17.145 21.0488 17.952 19.3322 19.6922 17.7192C20.3887 17.0746 21.1492 16.7614 22.0176 16.7614C22.2639 16.7614 22.4922 16.7884 22.6936 16.8122C22.8599 16.8319 23.017 16.8505 23.1567 16.8505C24.6569 16.8505 25.0818 17.6249 25.442 18.5636C25.5722 18.8796 26.0223 20.0613 26.4251 21.1581C27.3014 23.5445 27.3014 23.7158 27.3014 23.9327C27.3014 24.947 26.2525 25.9996 23.8589 28.1594C23.1864 28.7663 22.17 29.6834 21.9989 29.962C22.0003 29.9598 22.0813 29.8245 22.0813 29.602H21.6997C24.2685 33.2765 26.6766 35.9311 30.1966 37.6146C30.7921 36.9502 31.8075 35.536 32.407 34.7011C33.0169 33.8517 33.5929 33.0495 34.0902 32.4263C34.8315 31.4972 35.3275 31.0255 35.9813 31.0255C36.2087 31.0255 36.6319 31.0255 39.4668 32.4889C42.3377 33.971 42.5146 34.271 42.6567 34.5121L42.697 34.5804L42.7266 34.6539C42.8659 34.9996 42.8659 35.3297 42.8659 35.507C42.8659 36.4968 42.5404 37.5283 42.2674 38.2193L42.2618 38.2333C41.7252 39.5367 40.4477 40.3671 39.4705 40.8343C38.3325 41.3782 37.018 41.703 35.9544 41.703ZM32.2315 38.5063C33.7049 39.0987 35.2004 39.5804 35.9544 39.5804C37.4696 39.5804 39.8067 38.5716 40.2809 37.4361C40.5504 36.7521 40.7069 36.11 40.7265 35.6116C39.8331 35.0422 37.219 33.6945 36.1702 33.2592C35.6829 33.7948 34.7794 35.053 34.1472 35.9335C33.3358 37.0633 32.724 37.8983 32.2315 38.5063ZM19.2119 23.3352L19.2118 23.5787C19.1916 24.9401 19.7047 26.4806 20.7387 28.1666C21.1239 27.765 21.6703 27.2664 22.4215 26.5884C23.0675 26.0055 23.7355 25.4028 24.2775 24.8572C24.8004 24.3309 25.0265 24.0345 25.1217 23.8883C24.8398 22.9806 23.6945 19.921 23.4605 19.3596L23.449 19.3307C23.388 19.1712 23.3391 19.0531 23.3031 18.9776C23.2543 18.9744 23.2054 18.9728 23.1566 18.9731C22.8901 18.9731 22.6514 18.9448 22.4408 18.9199C22.2778 18.9007 22.137 18.884 22.0176 18.884C21.7403 18.884 21.4984 18.9489 21.1499 19.2716C19.8294 20.4954 19.2671 21.6739 19.2119 23.3352Z" fill="white"></path></svg>