<svg xmlns="http://www.w3.org/2000/svg" width="60" height="60" viewBox="0 0 60 60" fill="none"><path d="M29.0983 8.55273C17.2572 8.55273 7.65674 18.1532 7.65674 29.9943C7.65674 41.8344 17.2572 51.4356 29.0983 51.4356C40.9391 51.4356 50.5396 41.8344 50.5396 29.9943C50.5396 18.1532 40.9391 8.55273 29.0983 8.55273ZM29.0983 50.0062C18.0634 50.0062 9.08617 41.0289 9.08617 29.9943C9.08617 18.9594 18.0634 9.98216 29.0983 9.98216C40.1329 9.98216 49.1102 18.9594 49.1102 29.9943C49.1102 41.0289 40.1329 50.0062 29.0983 50.0062Z" fill="white"></path><path d="M32.5364 33.0449C32.0848 33.0632 31.7093 33.1622 31.4084 33.2412C30.8306 33.3939 30.3741 33.5147 28.6655 30.2893L28.461 29.9015C26.7789 26.7269 27.1627 26.3431 27.3073 26.1981C27.3848 26.1206 27.4698 26.0479 27.5579 25.9719C27.6897 25.8566 27.8258 25.7367 27.9605 25.6027H27.9612C28.0959 25.4674 28.2287 25.3186 28.3535 25.149C29.2408 23.9491 28.7262 21.803 28.3402 20.631C27.9502 19.4444 27.2857 17.9689 26.3336 17.6752C25.7242 17.4887 23.8273 17.3227 22.3747 18.7744C21.8234 19.3266 21.4067 20.0483 21.1388 20.92C20.0526 24.4531 21.9456 28.7784 23.9404 32.5432C25.9364 36.3094 28.454 40.3051 31.9822 41.3884C34.4173 42.1382 35.9271 41.1043 36.6099 40.4218C37.1563 39.8753 37.4774 39.2666 37.5863 38.9128C37.8208 38.1499 37.3795 37.0346 36.2733 35.5981C35.5189 34.6188 34.0293 32.9843 32.5364 33.0449ZM36.5616 38.5973C36.4982 38.8038 36.2567 39.2589 35.8517 39.6639C35.435 40.0805 34.7085 40.5782 33.6161 40.5782C33.2023 40.5782 32.7585 40.5054 32.2977 40.364C29.1416 39.3943 26.7803 35.6129 24.8874 32.0406C22.9953 28.4704 21.1924 24.3937 22.1632 21.2348C22.3789 20.5333 22.7056 19.9602 23.1335 19.5316C23.8817 18.7835 24.7661 18.6273 25.3752 18.6273C25.6942 18.6273 25.931 18.6732 26.0203 18.7003C26.2325 18.7659 26.7824 19.325 27.3221 20.9659C27.8525 22.5769 27.9174 23.9358 27.4916 24.5117C27.3989 24.638 27.3002 24.7469 27.2012 24.8459C27.088 24.9577 26.9688 25.063 26.8529 25.1643C26.7342 25.2669 26.6379 25.3514 26.5494 25.44C25.7361 26.2573 25.9797 27.5087 27.5139 30.4032L27.7169 30.7892C29.1728 33.537 29.9525 34.3746 31.0559 34.3746C31.3157 34.3746 31.5278 34.3189 31.6827 34.2776C31.9618 34.2043 32.2466 34.1296 32.5797 34.1165H32.5804C33.3341 34.1165 34.409 34.9346 35.4238 36.2523C36.7151 37.9286 36.581 38.5345 36.5616 38.5973Z" fill="white"></path></svg>