<svg xmlns="http://www.w3.org/2000/svg" width="60" height="60" viewBox="0 0 60 60" fill="none"><path d="M30.6673 5.96777C17.3072 5.96777 6.47705 16.798 6.47705 30.1581C6.47705 43.5164 17.3072 54.3463 30.6673 54.3463C44.0271 54.3463 54.8569 43.5164 54.8569 30.1581C54.8569 16.798 44.0271 5.96777 30.6673 5.96777ZM30.6673 53.167C17.9592 53.167 7.65733 42.8651 7.65733 30.1584C7.65733 17.4503 17.9592 7.1484 30.6673 7.1484C43.3758 7.1484 53.6774 17.4503 53.6774 30.1584C53.6774 42.8651 43.3758 53.167 30.6673 53.167Z" fill="white"></path><path d="M42.2835 19.5508H19.0508C17.6586 19.5508 16.5254 20.6833 16.5254 22.0762V38.238C16.5254 39.6298 17.6583 40.763 19.0508 40.763H42.2835C43.6756 40.763 44.8085 39.6298 44.8085 38.238V22.0758C44.8085 20.6833 43.6756 19.5508 42.2835 19.5508ZM34.5968 29.5199L43.7369 21.8225C43.7505 21.811 43.7568 21.7953 43.7687 21.7824C43.7875 21.8775 43.7983 21.9755 43.7983 22.0758V38.2376C43.7983 38.384 43.7711 38.5216 43.7324 38.6558L34.5968 29.5199ZM42.2835 20.5607C42.6703 20.5607 43.0205 20.7112 43.2885 20.9502C43.2163 20.9687 43.1466 20.9983 43.086 21.0496L30.6671 31.5086L27.6424 28.9613C27.6347 28.9522 27.6316 28.9407 27.6229 28.9324C27.6016 28.9108 27.5748 28.9017 27.5511 28.885L18.2475 21.0499C18.1869 20.999 18.1172 20.9691 18.0451 20.9513C18.3134 20.7112 18.6633 20.5607 19.0504 20.5607H42.2835ZM17.536 38.238V22.0758C17.536 21.9751 17.5468 21.8772 17.5652 21.7824C17.5778 21.7946 17.5841 21.811 17.5973 21.8225L26.5116 29.33L17.5419 38.3004C17.5415 38.2791 17.536 38.2589 17.536 38.238ZM19.0508 39.7528C18.5758 39.7528 18.1559 39.5287 17.8782 39.1851C18.0067 39.1844 18.1343 39.1353 18.2322 39.0381L27.2876 29.9834L30.342 32.5547C30.3664 32.5757 30.3946 32.5854 30.4207 32.6007C30.4396 32.6112 30.4563 32.6241 30.4758 32.6328C30.5375 32.6579 30.602 32.6739 30.6671 32.6739C30.7323 32.6739 30.7964 32.6579 30.8581 32.6328C30.8779 32.6244 30.894 32.6112 30.9128 32.6014C30.94 32.5861 30.9682 32.5764 30.9926 32.5547L33.8211 30.1736L43.102 39.4535C43.1149 39.4664 43.1309 39.4712 43.1438 39.4817C42.8996 39.6514 42.6034 39.7521 42.2835 39.7521H19.0508V39.7528Z" fill="white"></path></svg>