<svg xmlns="http://www.w3.org/2000/svg" width="31" height="30" viewBox="0 0 31 30" fill="none"><g clip-path="url(#clip0_110_3136)"><path d="M0.971191 15C0.971191 23.2843 7.68692 30 15.9712 30C24.2555 30 30.9712 23.2843 30.9712 15C30.9712 6.71573 24.2555 0 15.9712 0C7.68692 0 0.971191 6.71573 0.971191 15Z" fill="#BE347F"></path><path d="M15.9712 10.5C13.5481 10.5 11.4712 12.4615 11.4712 15C11.4712 17.4231 13.4327 19.5 15.9712 19.5C18.3943 19.5 20.4712 17.5384 20.4712 15C20.4712 12.5769 18.3943 10.5 15.9712 10.5ZM15.9712 17.8846C14.3558 17.8846 13.0866 16.6154 13.0866 15C13.0866 13.3846 14.3558 12.1154 15.9712 12.1154C17.5866 12.1154 18.8558 13.3846 18.8558 15C18.8558 16.6154 17.5866 17.8846 15.9712 17.8846ZM20.5866 9.34613C20.0097 9.34613 19.5481 9.80767 19.5481 10.3846C19.5481 10.9615 20.0097 11.4231 20.5866 11.4231C21.1635 11.4231 21.625 10.9615 21.625 10.3846C21.625 9.80767 21.1635 9.34613 20.5866 9.34613Z" fill="white"></path><path d="M20.0097 6.34618H19.5481C18.1635 6.2308 13.7789 6.2308 12.3943 6.34618C9.74045 6.2308 7.43276 8.30772 7.31737 10.9616V11.4231C7.20199 12.8077 7.20199 17.1923 7.31737 18.577C7.20199 21.2308 9.27891 23.5385 11.9328 23.6539H12.3943C13.7789 23.7693 18.1635 23.7693 19.5481 23.6539C22.202 23.7693 24.5097 21.6923 24.6251 19.0385V18.577V11.4231C24.7405 8.76926 22.6635 6.46157 20.0097 6.34618ZM22.7789 20.077C22.4328 20.8846 21.8558 21.4616 21.1635 21.6923C17.8174 22.1539 14.3558 22.1539 10.8943 21.6923C10.0866 21.3462 9.50968 20.7693 9.27891 20.077C8.93276 18.3462 8.81737 16.6154 8.93276 15C8.81737 13.2693 8.93276 11.5385 9.27891 9.92311C9.62507 9.11541 10.202 8.53849 10.8943 8.30772C14.2405 7.84618 17.702 7.84618 21.1635 8.30772C21.9712 8.65387 22.5481 9.2308 22.7789 9.92311C23.1251 11.6539 23.2405 13.3846 23.1251 15C23.2405 16.7308 23.1251 18.4616 22.7789 20.077Z" fill="white"></path></g><defs><clipPath id="clip0_110_3136"><rect width="30" height="30" fill="white" transform="translate(0.971191)"></rect></clipPath></defs></svg>