<svg xmlns="http://www.w3.org/2000/svg" width="31" height="30" viewBox="0 0 31 30" fill="none"><g clip-path="url(#clip0_110_3143)"><path d="M15.9712 30C7.68669 30 0.971191 23.2845 0.971191 15C0.971191 6.7155 7.68669 0 15.9712 0C24.2557 0 30.9712 6.7155 30.9712 15C30.9712 23.2845 24.2557 30 15.9712 30Z" fill="#0073B1"></path><path d="M11.9352 21.61V11.642H8.93518V21.61H11.9352Z" fill="white"></path><path d="M10.4352 7.29999C9.46769 7.29999 8.83619 7.97249 8.85569 8.86999C8.83569 9.72599 9.46769 10.419 10.4157 10.419C11.4022 10.419 12.0342 9.72599 12.0342 8.86949C12.0142 7.97249 11.4022 7.29999 10.4352 7.29999Z" fill="white"></path><path d="M14.3436 21.61H17.3436V15.8615C17.3436 15.5765 17.3836 15.2705 17.4626 15.0865C17.6596 14.5165 18.1531 13.925 18.9826 13.925C20.0676 13.925 20.5026 14.8015 20.5026 16.086V21.61H23.5026V15.6985C23.5026 12.7635 22.0226 11.4175 20.0481 11.4175C18.4496 11.4175 17.4626 12.376 17.0676 13.0075H17.0081L16.8701 11.642H14.2646C14.3041 12.5185 14.3436 13.5785 14.3436 14.822V21.61Z" fill="white"></path></g><defs><clipPath id="clip0_110_3143"><rect width="30" height="30" fill="white" transform="translate(0.971191)"></rect></clipPath></defs></svg>