<svg xmlns="http://www.w3.org/2000/svg" width="60" height="60" viewBox="0 0 60 60" fill="none"><path d="M33.0063 18.0058C31.7406 19.2715 30.475 20.5429 29.2094 21.8086C27.1879 23.8359 25.1664 25.8632 23.1391 27.8906L21.7504 29.2793C21.1059 29.9238 21.5805 31.084 22.4946 31.0781C24.1821 31.0722 25.8637 31.0722 27.5512 31.0664L35.643 31.0488C36.2582 31.0488 36.8793 31.0488 37.4946 31.0429C37.2485 30.4453 36.9965 29.8418 36.7504 29.2441L32.9535 33.041L26.8832 39.1113L25.4946 40.5C25.102 40.8925 25.0727 41.6074 25.4946 41.9941C25.9164 42.3808 26.5668 42.4101 26.9887 41.9941L30.7856 38.1972L36.8559 32.1269L38.2446 30.7382C38.8891 30.0937 38.4145 28.9336 37.5004 28.9394C35.8129 28.9453 34.1313 28.9453 32.4438 28.9511L24.352 28.9687C23.7367 28.9687 23.1156 28.9687 22.5004 28.9746C22.7465 29.5722 22.9985 30.1757 23.2446 30.7734C24.5102 29.5078 25.7758 28.2363 27.0414 26.9707C29.0629 24.9433 31.0903 22.916 33.1117 20.8828L34.5004 19.4941C34.893 19.1015 34.9223 18.3867 34.5004 18C34.0785 17.6191 33.4223 17.584 33.0063 18.0058ZM34.5707 12.5859C35.0278 12.709 35.4848 12.8496 35.9301 13.0078C36.1528 13.084 36.3696 13.166 36.5922 13.2539C36.7094 13.3007 36.8207 13.3476 36.9379 13.3945C36.9086 13.3828 36.7328 13.3066 36.9145 13.3828C36.9906 13.4179 37.0668 13.4472 37.1371 13.4824C37.9985 13.8691 38.8305 14.3203 39.6274 14.83C40.0317 15.0879 40.4184 15.3632 40.8051 15.6562C40.8461 15.6855 40.9633 15.7793 40.7817 15.6386C40.8227 15.6738 40.8637 15.7031 40.9047 15.7382C40.9985 15.8144 41.0922 15.8847 41.1801 15.9609C41.3617 16.1132 41.5434 16.2656 41.7192 16.4238C42.4164 17.0449 43.061 17.7129 43.6586 18.4336C43.7348 18.5215 43.811 18.6152 43.8813 18.709C43.9164 18.75 43.9457 18.791 43.9809 18.832C44.0043 18.8613 44.1039 18.9961 44.016 18.8789C43.9164 18.7441 44.0688 18.9492 44.0746 18.9609C44.1039 19.0019 44.1391 19.0429 44.1684 19.084L44.3969 19.4004C44.6606 19.7754 44.9125 20.1562 45.1469 20.5488C45.3813 20.9414 45.6039 21.3398 45.809 21.7441C45.9145 21.955 46.0199 22.166 46.1137 22.3769C46.1547 22.4707 46.2016 22.5644 46.2426 22.664C46.266 22.7109 46.2836 22.7578 46.3071 22.8105C46.4067 23.0273 46.2367 22.6406 46.3246 22.8457C46.6762 23.707 46.9692 24.5918 47.1918 25.4941C47.3031 25.9394 47.3969 26.3906 47.4731 26.8476C47.4906 26.9648 47.5141 27.082 47.5317 27.1992C47.5434 27.2636 47.5551 27.3281 47.561 27.3984C47.561 27.3691 47.5317 27.1582 47.5551 27.3515C47.5844 27.5859 47.6078 27.8261 47.6313 28.0664C47.725 29.1386 47.725 30.2168 47.6313 31.289C47.6078 31.5586 47.5844 31.834 47.5434 32.1035C47.5492 32.0683 47.5785 31.8691 47.5492 32.0683L47.5141 32.3144C47.4965 32.4375 47.4731 32.5605 47.4496 32.6836C47.3559 33.2168 47.2387 33.75 47.0981 34.2773C46.9574 34.8105 47.2738 35.4492 47.8363 35.5722C48.393 35.7011 48.9789 35.4082 49.1313 34.834C50.1801 30.9199 50.0102 26.6777 48.5922 22.875C47.1684 19.0722 44.643 15.7851 41.3207 13.4472C39.4574 12.1347 37.3363 11.1621 35.1332 10.5761C34.6 10.4355 33.9613 10.7519 33.8383 11.3144C33.7094 11.8418 34.0024 12.4336 34.5707 12.5859ZM12.9028 34.2539C12.7621 33.7148 12.6391 33.1757 12.5395 32.625C12.516 32.4843 12.4926 32.3379 12.4692 32.1972C12.4633 32.1445 12.4516 32.0918 12.4457 32.039C12.4692 32.2031 12.4457 32.0214 12.4399 31.998C12.4047 31.7109 12.3754 31.4238 12.352 31.1308C12.2641 29.9941 12.2817 28.8515 12.3988 27.7207C12.4164 27.5742 12.434 27.4218 12.4516 27.2754C12.4281 27.4394 12.4926 27.0293 12.4926 27C12.5395 26.7011 12.5981 26.4023 12.6567 26.1093C12.7621 25.6172 12.8852 25.125 13.0258 24.6386C13.1547 24.205 13.2953 23.7773 13.4535 23.3554C13.5297 23.1504 13.6117 22.9511 13.6938 22.7519C13.7406 22.6406 13.6762 22.7929 13.6703 22.8047L13.7406 22.6465L13.8988 22.2949C14.268 21.498 14.6899 20.7304 15.1703 19.998C15.4047 19.6347 15.6567 19.2832 15.9145 18.9375C15.9496 18.8906 15.9789 18.8496 16.0141 18.8027C15.9906 18.832 15.8793 18.9726 16.0024 18.8203C16.061 18.7441 16.1254 18.6679 16.184 18.5918C16.3246 18.4218 16.4653 18.2519 16.6117 18.082C17.186 17.4316 17.8012 16.8164 18.4574 16.248L18.8969 15.8789C18.9848 15.8086 19.0668 15.7441 19.1547 15.6738C19.1899 15.6445 19.3129 15.5566 19.1371 15.6855C19.184 15.6504 19.225 15.6211 19.266 15.5859C19.6176 15.3222 19.975 15.0703 20.3442 14.8359C21.1352 14.3261 21.9672 13.8691 22.8285 13.4824C22.9399 13.4297 23.0512 13.3828 23.1684 13.3359C22.9399 13.4355 23.268 13.2949 23.3324 13.2715C23.5492 13.1836 23.766 13.1015 23.9887 13.0254C24.4574 12.8613 24.9262 12.7148 25.4067 12.5859C25.9399 12.4394 26.3207 11.83 26.1449 11.291C25.9692 10.7461 25.4184 10.4004 24.85 10.5527C21.311 11.5136 18.0414 13.4531 15.5336 16.1308C12.85 18.9961 11.0336 22.664 10.4301 26.5488C10.0024 29.3086 10.1313 32.1093 10.852 34.8105C10.9926 35.3437 11.6078 35.7187 12.1469 35.5488C12.7153 35.373 13.0551 34.8222 12.9028 34.2539Z" fill="#F9AB04"></path><path d="M42.516 42.1933C42.1878 42.5156 41.8539 42.832 41.5082 43.1308C41.3324 43.2832 41.1566 43.4297 40.9808 43.5703C40.9339 43.6113 40.7113 43.7812 40.8695 43.6582C40.7699 43.7344 40.6761 43.8047 40.5765 43.875C39.8265 44.4258 39.0355 44.9179 38.2152 45.3515C37.8109 45.5625 37.4007 45.7617 36.9789 45.9492C36.9378 45.9668 36.8968 45.9844 36.85 46.0019C36.8851 45.9844 37.0316 45.9199 36.85 46.0019C36.7503 46.0429 36.6507 46.084 36.5511 46.1191C36.3226 46.207 36.0941 46.2949 35.8656 46.3711C34.9984 46.6758 34.1019 46.9101 33.1996 47.0801C32.971 47.1211 32.7425 47.1621 32.514 47.1972C32.4671 47.2031 32.4203 47.209 32.3792 47.2148C32.2152 47.2383 32.5492 47.1972 32.3851 47.2148C32.2621 47.2265 32.139 47.2441 32.016 47.2558C31.5531 47.3086 31.0843 47.3379 30.6156 47.3554C29.6488 47.3847 28.6878 47.3379 27.7328 47.2265C27.721 47.2265 27.5628 47.2031 27.68 47.2207C27.8148 47.2383 27.6097 47.209 27.5804 47.209L27.2464 47.1562C26.9886 47.1152 26.7367 47.0683 26.4847 47.0156C26.0335 46.9219 25.5882 46.8105 25.1488 46.6875C24.6742 46.5527 24.2113 46.4004 23.7484 46.2304C23.5375 46.1543 23.3265 46.0664 23.1156 45.9844C22.9222 45.9082 23.0628 45.9609 23.098 45.9785C23.0394 45.9551 22.9808 45.9258 22.9222 45.9023L22.5707 45.7441C21.598 45.2871 20.6605 44.748 19.7757 44.1269C19.5707 43.9804 19.3714 43.834 19.1722 43.6816C19.3246 43.7929 19.1898 43.6992 19.1664 43.6758C19.1078 43.6289 19.0433 43.5762 18.9847 43.5293C18.8851 43.4531 18.7914 43.3711 18.6976 43.289C18.2816 42.9375 17.8832 42.5742 17.4964 42.1875C17.1039 41.7949 16.389 41.7656 16.0023 42.1875C15.6156 42.6094 15.5863 43.2656 16.0023 43.6816C18.891 46.5586 22.6585 48.5273 26.6898 49.1953C30.7562 49.8691 34.9105 49.2832 38.6312 47.5019C40.6234 46.5469 42.4515 45.2344 44.016 43.6816C44.4085 43.2949 44.432 42.5742 44.016 42.1875C43.5824 41.8066 42.932 41.7773 42.516 42.1933Z" fill="#F9AB04"></path><path d="M37.9455 43.9864C39.4924 43.9864 41.0451 43.9922 42.592 43.9922H43.2541C43.8049 43.9922 44.3322 43.5059 44.3088 42.9375C44.2854 42.3633 43.8459 41.8828 43.2541 41.8828C41.7073 41.8828 40.1545 41.877 38.6076 41.877H37.9455C37.3947 41.877 36.8674 42.3633 36.8908 42.9317C36.9201 43.5059 37.3596 43.9864 37.9455 43.9864ZM13.6408 29.4024C12.8615 30.7442 12.0881 32.086 11.3088 33.4278C11.1975 33.6211 11.0862 33.8086 10.9748 34.002C10.6994 34.4825 10.8459 35.1797 11.3557 35.4434C11.8596 35.7071 12.5041 35.5723 12.7971 35.0625C13.5764 33.7207 14.3498 32.3789 15.1291 31.0371C15.2405 30.8438 15.3518 30.6563 15.4631 30.4629C15.7385 29.9825 15.592 29.2852 15.0822 29.0215C14.5783 28.7578 13.9338 28.8926 13.6408 29.4024ZM38.4143 15.6387C37.6408 14.2969 36.8674 12.9551 36.094 11.6075C35.9826 11.4141 35.8713 11.2266 35.7658 11.0332C35.4905 10.5528 34.799 10.3477 34.3244 10.6524C33.844 10.9629 33.6506 11.584 33.9436 12.0938C34.717 13.4356 35.4905 14.7774 36.2639 16.125C36.3752 16.3184 36.4865 16.5059 36.592 16.6993C36.8674 17.1797 37.5588 17.3848 38.0334 17.0801C38.5197 16.7696 38.7072 16.1485 38.4143 15.6387Z" fill="#F9AB04"></path></svg>