<svg xmlns="http://www.w3.org/2000/svg" width="50" height="50" viewBox="0 0 50 50" fill="none"><path d="M25 6.25C36.2188 6.25 45.3125 15.3438 45.3125 26.5625C45.3125 27.0891 45.2922 27.6094 45.2531 28.125H26.5625V40.625C26.5637 41.8452 26.089 43.0177 25.2394 43.8935C24.3898 44.7692 23.2322 45.2792 22.0126 45.315C20.7929 45.3508 19.6074 44.9096 18.7079 44.0852C17.8083 43.2608 17.2657 42.1181 17.1953 40.9L17.1875 40.625V39.0625H20.3125V40.625C20.3129 41.0233 20.4654 41.4063 20.7388 41.6959C21.0122 41.9855 21.3859 42.1597 21.7834 42.1831C22.181 42.2064 22.5725 42.0771 22.8779 41.8215C23.1833 41.5659 23.3795 41.2033 23.4266 40.8078L23.4375 40.625V28.125H4.74688C4.70781 27.6094 4.6875 27.0906 4.6875 26.5625C4.6875 15.3438 13.7812 6.25 25 6.25ZM25 9.375C16.0344 9.375 8.67188 16.2406 7.88281 25H42.1172C41.3281 16.2406 33.9656 9.375 25 9.375ZM25 12.5V15.625C22.9297 15.6247 20.9017 16.2117 19.1518 17.3181C17.4018 18.4244 16.0017 20.0046 15.1141 21.875H11.7391L11.9344 21.3516C12.9485 18.811 14.6815 16.6212 16.9211 15.0505C19.1606 13.4797 21.8097 12.5961 24.5438 12.5078L25 12.5ZM42.9688 4.6875C43.0687 4.7875 43.1656 4.88594 43.2578 4.98438L43.4406 5.17656C44.6891 6.52344 45.3125 7.6625 45.3125 8.59375C45.3125 10.1562 44.0109 10.9375 42.9688 10.9375C41.9266 10.9375 40.625 10.1562 40.625 8.59375C40.625 7.6625 41.25 6.52344 42.4969 5.17656L42.6797 4.98281L42.9688 4.6875ZM37.5 3.125L37.6938 3.30938L37.8141 3.43125C38.6469 4.27344 39.0625 4.98438 39.0625 5.56562C39.0625 6.54375 38.1937 7.03125 37.5 7.03125C36.8063 7.03125 35.9375 6.54219 35.9375 5.56562C35.9375 4.98438 36.3531 4.27344 37.1859 3.43125L37.3062 3.30938C37.3701 3.2472 37.4347 3.18574 37.5 3.125Z" fill="#F9AB04"></path></svg>