<svg xmlns="http://www.w3.org/2000/svg" width="100" height="100" viewBox="0 0 100 100" fill="none"><path d="M84.7283 39.7197C84.5026 39.5415 84.2413 39.4346 83.9562 39.4108C74.6202 38.8051 65.3317 42.8911 61.0438 50.3147C56.5777 58.0354 57.1241 67.5614 62.1009 74.9614C62.1128 75.0208 62.1128 75.0801 62.1247 75.1277C62.968 74.4981 63.7638 73.8211 64.5359 73.1084C60.2717 66.6825 59.8322 58.4867 63.6807 51.8232C67.244 45.6467 75.0834 42.0952 83.1248 42.4159C87.2464 48.83 87.6027 56.907 83.8256 63.4517C80.6067 69.0224 74.9409 72.5383 68.6575 73.251C67.6479 74.3793 66.5551 75.4365 65.3911 76.4105C73.9907 76.7193 82.127 72.4551 86.4506 64.9721C90.9523 57.2158 90.4059 47.6303 85.3222 40.1829C85.1678 39.9928 84.9659 39.8266 84.7283 39.7197ZM52.4798 21.2258C50.3656 28.5544 44.4979 34.1727 37.0386 35.6218C30.0425 36.9877 22.2149 33.4006 17.1787 27.1291C19.3167 19.8123 25.1725 14.2416 32.5962 12.8043C38.749 11.6047 44.9611 13.4458 49.5935 17.4961C51.4346 17.7812 53.24 18.2325 54.986 18.8264C54.9742 18.8264 54.9742 18.8146 54.9623 18.8146C49.5935 11.7116 40.7682 8.11258 32.0261 9.81112C23.2364 11.5215 16.3473 18.2207 14.0667 26.939C14.0073 27.1885 14.0192 27.4498 14.0905 27.6873C14.1142 27.9605 14.1855 28.2337 14.3636 28.4713C20.0294 35.9187 29.211 40.2423 37.6206 38.6031C46.1845 36.9402 52.9074 30.538 55.3661 22.1998C54.4159 21.8197 53.4538 21.499 52.4798 21.2258ZM10.4915 68.5592C10.7409 73.8924 12.7958 79.0592 16.5729 83.1096C22.6782 89.6662 32.0142 91.9468 40.6138 89.2624C40.8514 89.1792 41.0652 89.0367 41.2433 88.8466C41.469 88.6803 41.6591 88.4547 41.766 88.1933C45.0799 79.4393 43.8802 69.3669 38.0363 63.0954C32.2874 56.9426 23.6997 54.5789 15.5633 56.5387C15.7534 57.5365 16.0028 58.5342 16.2879 59.4964C23.3671 57.7978 30.8145 59.8527 35.8033 65.1859C40.6851 70.4003 41.7897 78.9286 39.1291 86.5304C31.7885 88.5972 23.961 86.5779 18.806 81.0429C14.1498 76.0541 12.5107 69.1056 14.1023 62.549C13.4966 60.9217 13.0096 59.235 12.6532 57.5127C12.2256 57.8334 11.9999 58.3561 12.0593 58.8906C11.121 61.3255 10.6102 63.8674 10.4915 66.3855V68.5592ZM14.9932 38.4131C14.9932 39.2564 15.6702 39.9335 16.5135 39.9335C17.3569 39.9335 18.0339 39.2564 18.0339 38.4131C18.0339 37.5698 17.3569 36.8927 16.5135 36.8927C15.6821 36.8927 14.9932 37.5698 14.9932 38.4131ZM74.2876 33.852C74.2876 33.0086 73.6106 32.3316 72.7673 32.3316C71.9239 32.3316 71.2469 33.0086 71.2469 33.852C71.2469 34.6953 71.9239 35.3723 72.7673 35.3723C73.6106 35.3723 74.2876 34.6953 74.2876 33.852ZM48.4413 80.9835C48.4413 81.8268 49.1184 82.5038 49.9617 82.5038C50.805 82.5038 51.4821 81.8268 51.4821 80.9835C51.4821 80.1401 50.805 79.4631 49.9617 79.4631C49.1184 79.4631 48.4413 80.1401 48.4413 80.9835Z" fill="#F9AB04"></path><path d="M28.546 79.7007C29.0211 79.9857 29.6031 79.9976 30.0901 79.7363C30.5771 79.4631 30.874 78.9524 30.8622 78.3941C30.874 77.8358 30.5652 77.337 30.0782 77.0756C26.206 74.8307 22.9396 71.7662 20.4452 68.1553C23.6879 68.7849 27.0137 68.9274 30.292 68.5592C31.1235 68.4642 31.7292 67.7159 31.6342 66.8844C31.5392 66.053 30.7909 65.4472 29.9594 65.5422C26.0279 65.9698 22.0488 65.6135 18.2716 64.497C17.4758 62.9053 16.8106 61.2305 16.288 59.4964C16.0029 58.5224 15.7535 57.5365 15.5634 56.5388C15.1833 54.6027 14.9933 52.6072 14.9933 50.5761C14.9933 49.4714 15.0527 48.3668 15.1596 47.2859C15.2427 46.4544 14.637 45.718 13.8055 45.623C12.9741 45.5398 12.2257 46.1337 12.1307 46.9652C12.0001 48.1648 11.9407 49.3645 11.9407 50.5761C11.9407 52.9398 12.1901 55.2678 12.6533 57.5127C13.0097 59.235 13.4967 60.9217 14.1025 62.549C16.7987 69.7351 21.8587 75.8285 28.546 79.7007ZM44.6524 17.116C39.0935 17.116 33.7247 18.5414 28.9498 21.2258C28.4747 21.4871 28.1778 21.986 28.1778 22.5323C28.1659 23.0787 28.4509 23.5776 28.9261 23.8627C29.3893 24.1359 29.9713 24.1477 30.4464 23.8745C32.8458 22.5205 35.4233 21.5227 38.0839 20.9051C36.1241 23.4588 34.5443 26.3095 33.4159 29.3503C33.214 29.861 33.309 30.443 33.6535 30.8706C33.9979 31.2982 34.5562 31.5002 35.0907 31.4051C35.6371 31.3101 36.0766 30.93 36.2666 30.4193C37.6563 26.6896 39.7706 23.2925 42.5025 20.3943C42.55 20.3468 42.5856 20.2874 42.6213 20.228C45.9404 19.9952 49.2748 20.3327 52.4799 21.2258C53.4539 21.499 54.416 21.8197 55.3663 22.1998C58.1101 23.2925 60.6757 24.7891 63.0037 26.6777C63.6452 27.2122 64.5954 27.1053 65.1299 26.4521C65.6525 25.7988 65.5575 24.8367 64.9042 24.314C61.9229 21.9028 58.5614 20.0499 54.9862 18.8264C53.2401 18.2325 51.4347 17.7812 49.5936 17.4961C47.9782 17.2467 46.3272 17.116 44.6524 17.116ZM68.6576 73.2628C69.8217 71.9682 70.8907 70.5903 71.8409 69.1293C72.0547 68.9393 72.2091 68.6899 72.2923 68.4167C75.5112 63.2023 77.3404 57.0495 77.3404 50.5642C77.3404 49.7209 76.6633 49.0438 75.82 49.0438C74.9767 49.0438 74.2996 49.7209 74.2996 50.5642C74.2996 54.8046 73.4444 58.8906 71.8765 62.6084C71.4371 60.0784 70.7006 57.6078 69.6791 55.2441C69.3465 54.472 68.4557 54.1157 67.6836 54.4483C66.9116 54.7808 66.5552 55.6717 66.8878 56.4437C68.3963 59.924 69.2159 63.6536 69.3109 67.4427C67.9568 69.5213 66.3652 71.4218 64.5479 73.1084C63.7877 73.8211 62.98 74.4981 62.1367 75.1277C60.45 76.3986 58.6089 77.4914 56.6609 78.3822C56.1502 78.596 55.8057 79.0711 55.7463 79.6175C55.687 80.1639 55.9364 80.6984 56.3878 81.0191C56.8391 81.3398 57.4211 81.3873 57.92 81.1498C60.64 79.9145 63.1463 78.3109 65.3912 76.4224C66.5434 75.4484 67.6361 74.3912 68.6576 73.2628Z" fill="#F9AB04"></path></svg>