<svg xmlns="http://www.w3.org/2000/svg" width="130" height="130" viewBox="0 0 130 130" fill="none"><path d="M90.8579 105.187H48.3693C47.3663 105.187 46.4218 104.712 45.8226 103.907C45.527 103.51 45.3286 103.05 45.243 102.562C45.1575 102.075 45.1873 101.574 45.33 101.1L52.2464 78.0889C52.4429 77.4356 52.8446 76.863 53.392 76.456C53.9395 76.0489 54.6035 75.8291 55.2857 75.8291H83.8539C85.2504 75.8291 86.4831 76.7419 86.8906 78.0787L93.8946 101.09C94.1879 102.053 94.0076 103.096 93.4084 103.904C93.1131 104.302 92.7285 104.625 92.2856 104.848C91.8427 105.071 91.3538 105.187 90.8579 105.187ZM52.6374 98.8394H86.5758L81.5027 82.1768H57.6457L52.6374 98.8394Z" fill="#221816"></path><path d="M70.2483 81.25C68.4951 81.25 67.0745 79.8294 67.0745 78.0762V66.8459C67.0745 65.0927 68.4951 63.6721 70.2483 63.6721C72.0015 63.6721 73.4221 65.0927 73.4221 66.8459V78.0762C73.4221 79.8281 72.0002 81.25 70.2483 81.25Z" fill="#221816"></path><path d="M98.2654 69.7366H39.8403C38.0871 69.7366 36.6665 68.316 36.6665 66.5628V56.3862C36.6665 54.633 38.0871 53.2124 39.8403 53.2124C41.5936 53.2124 43.0142 54.633 43.0142 56.3862V63.389H95.0916V57.511C95.0916 55.7578 96.5122 54.3372 98.2654 54.3372C100.019 54.3372 101.439 55.7578 101.439 57.511V66.5628C101.439 68.316 100.019 69.7366 98.2654 69.7366Z" fill="#221816"></path><path d="M39.2996 59.5131C32.5203 59.5131 27.0042 53.9969 27.0042 47.2177C27.0042 40.4384 32.5203 34.9222 39.2996 34.9222C46.0789 34.9222 51.595 40.4384 51.595 47.2177C51.595 53.9969 46.0789 59.5131 39.2996 59.5131ZM39.2996 41.2712C36.0204 41.2712 33.3518 43.9397 33.3518 47.2189C33.3518 50.4981 36.0204 53.1667 39.2996 53.1667C42.5788 53.1667 45.2473 50.4981 45.2473 47.2189C45.2473 43.9385 42.5788 41.2712 39.2996 41.2712ZM61.7588 59.7213C61.0835 59.7213 60.403 59.5067 59.8253 59.0624C58.4365 57.9934 58.1762 56.0003 59.2452 54.6114L67.732 43.5792C68.013 43.2138 68.3703 42.914 68.779 42.7007C69.1877 42.4873 69.6379 42.3656 70.0984 42.3439L83.8334 41.699L92.4002 28.8323C93.3714 27.3736 95.3417 26.9775 96.8004 27.95C98.2591 28.9212 98.6552 30.8915 97.684 32.3502L88.2273 46.5537C87.9513 46.9678 87.5819 47.3113 87.1488 47.5566C86.7157 47.8018 86.2311 47.9418 85.7339 47.9654L71.8656 48.6167L64.2763 58.4822C63.6517 59.2947 62.7097 59.7213 61.7588 59.7213Z" fill="#221816"></path><path d="M98.1971 49.2413C96.4439 49.2413 95.0232 47.8207 95.0232 46.0675V31.3384L75.6451 30.8547C73.8932 30.8115 72.5081 29.3554 72.5513 27.6021C72.5944 25.8502 74.0506 24.4613 75.8038 24.5083L98.2771 25.0682C99.9985 25.1113 101.372 26.5192 101.372 28.2407V46.0649C101.371 47.8207 99.949 49.2413 98.1971 49.2413Z" fill="#221816"></path></svg>