<svg xmlns="http://www.w3.org/2000/svg" width="100" height="100" viewBox="0 0 100 100" fill="none"><path d="M53.4083 26.525C54.9191 25.7875 56.1331 24.5567 56.8498 23.036C57.5665 21.5152 57.7432 19.7955 57.3505 18.1609C56.9578 16.5262 56.0193 15.0744 54.6901 14.0452C53.3608 13.0159 51.7202 12.4709 50.0393 12.5C48.3584 12.5291 46.7377 13.1307 45.4449 14.2054C44.1521 15.2801 43.2645 16.7636 42.9287 18.4109C42.5929 20.0581 42.829 21.7707 43.598 23.2657C44.367 24.7606 45.6229 25.9486 47.1583 26.6333V36.3625H22.95C20.475 36.3625 18.4667 38.3708 18.4667 40.85V81.875C18.4667 84.3542 20.475 86.3625 22.9542 86.3625H77.6167C80.0917 86.3625 82.1042 84.3542 82.1042 81.875V40.85C82.1042 38.3708 80.0917 36.3625 77.6167 36.3625H53.4083V26.5292V26.525ZM75.8542 80.1125H24.7167V42.6125H75.8542V80.1125ZM12.5 54.5458V68.1833C12.5 69.0121 12.1708 69.807 11.5847 70.393C10.9987 70.9791 10.2038 71.3083 9.375 71.3083C8.5462 71.3083 7.75134 70.9791 7.16529 70.393C6.57924 69.807 6.25 69.0121 6.25 68.1833V54.5417C6.25 53.7129 6.57924 52.918 7.16529 52.332C7.75134 51.7459 8.5462 51.4167 9.375 51.4167C10.2038 51.4167 10.9987 51.7459 11.5847 52.332C12.1708 52.918 12.5 53.7129 12.5 54.5417V54.5458ZM94.3208 54.5458V68.1833C94.3208 69.0121 93.9916 69.807 93.4055 70.393C92.8195 70.9791 92.0246 71.3083 91.1958 71.3083C90.367 71.3083 89.5722 70.9791 88.9861 70.393C88.4001 69.807 88.0708 69.0121 88.0708 68.1833V54.5417C88.0708 53.7129 88.4001 52.918 88.9861 52.332C89.5722 51.7459 90.367 51.4167 91.1958 51.4167C92.0246 51.4167 92.8195 51.7459 93.4055 52.332C93.9916 52.918 94.3208 53.7129 94.3208 54.5417V54.5458ZM40.4208 54.5458H39.875C39.7792 54.5458 39.6958 54.5875 39.6042 54.5875C39.5083 54.5875 39.3792 54.6375 39.2833 54.6375C39.1917 54.6375 39.1042 54.6792 39.0125 54.6792C38.9208 54.6792 38.8333 54.725 38.7375 54.725C38.6458 54.725 38.5583 54.8167 38.4667 54.8167C38.375 54.8167 38.2833 54.9083 38.1917 54.9083C38.1083 54.9083 38.0083 55 37.9208 55C37.8333 55 37.7792 55.1375 37.6917 55.1375C37.6083 55.1375 37.5042 55.225 37.4208 55.225C37.3375 55.225 37.275 55.3167 37.1917 55.3625L36.9208 55.5458C36.8417 55.6 36.7708 55.625 36.6917 55.6833C36.6167 55.7375 36.5375 55.8042 36.4667 55.8625C36.3917 55.925 36.3542 55.9833 36.2833 56.0458C36.2125 56.1083 36.125 56.2042 36.0583 56.2708C35.9917 56.3375 35.9375 56.3833 35.875 56.4542C35.8125 56.525 35.75 56.6083 35.6917 56.6833C35.6333 56.7542 35.5667 56.8333 35.5125 56.9083C35.4542 56.9875 35.3833 57.0583 35.3292 57.1375C35.275 57.2167 35.2458 57.2833 35.1917 57.3625C35.1458 57.4458 35.0583 57.5542 35.0583 57.6375C35.0583 57.7208 34.9208 57.7792 34.9208 57.8625C34.9208 57.9458 34.7833 58.0458 34.7833 58.1375C34.7833 58.2208 34.6917 58.3208 34.6917 58.4083C34.6917 58.5 34.6042 58.5917 34.6042 58.6833C34.6042 58.7708 34.5125 58.8625 34.5125 58.9542C34.5125 59.0458 34.4667 59.1333 34.4667 59.2292C34.4667 59.3208 34.4208 59.4083 34.4208 59.5C34.4208 59.5958 34.375 59.6792 34.375 59.775V60.9083C34.375 61.0042 34.4167 61.1333 34.4167 61.225C34.4167 61.3208 34.4667 61.4083 34.4667 61.5C34.4667 61.5958 34.5083 61.6792 34.5083 61.775C34.5083 61.8667 34.6042 61.9542 34.6042 62.0458C34.6042 62.1333 34.6917 62.2292 34.6917 62.3167C34.6917 62.4083 34.7833 62.5042 34.7833 62.5917C34.7833 62.6792 34.9208 62.7333 34.9208 62.8167C34.9208 62.9042 35.0583 63.0083 35.0583 63.0917C35.0583 63.175 35.1417 63.2375 35.1917 63.3167C35.2417 63.4 35.275 63.5125 35.3292 63.5917C35.3833 63.6708 35.4542 63.7417 35.5125 63.8167C35.5667 63.8958 35.6333 63.9708 35.6917 64.0458C35.7542 64.1208 35.8125 64.1583 35.875 64.225C35.9375 64.2958 35.9917 64.3875 36.0583 64.4542C36.125 64.5208 36.2125 64.5708 36.2833 64.6375C36.3542 64.7 36.3917 64.7583 36.4667 64.8167L36.6917 65C36.7708 65.0583 36.8417 65.1292 36.9208 65.1833C37 65.2333 37.1125 65.2667 37.1917 65.3167C37.275 65.3667 37.3375 65.4542 37.4208 65.4542C37.5042 65.4542 37.6083 65.5917 37.6917 65.5917C37.775 65.5917 37.8333 65.725 37.9208 65.725C38.0083 65.725 38.1042 65.8167 38.1917 65.8167C38.2833 65.8167 38.375 65.9083 38.4667 65.9083C38.5583 65.9083 38.6458 66 38.7375 66C38.8292 66 38.9167 66.0417 39.0125 66.0417C39.1042 66.0417 39.1917 66.0917 39.2833 66.0917C39.3792 66.0917 39.5083 66.1333 39.6042 66.1333H40.7375C40.8333 66.1333 40.9167 66.0917 41.0125 66.0917C41.1042 66.0917 41.1917 66.0458 41.2833 66.0458C41.3792 66.0458 41.4667 66 41.5583 66C41.65 66 41.7417 65.9083 41.8292 65.9083C41.9208 65.9083 42.0125 65.8167 42.1042 65.8167C42.1875 65.8167 42.2875 65.7292 42.375 65.7292C42.4625 65.7292 42.5625 65.5917 42.6458 65.5917C42.7292 65.5917 42.7917 65.4542 42.875 65.4542C42.9583 65.4542 43.0667 65.3708 43.1458 65.3167L43.375 65.1833C43.4542 65.1292 43.525 65.0583 43.6042 65C43.6792 64.9458 43.7542 64.8792 43.8292 64.8167C43.9042 64.7583 43.9875 64.7 44.0583 64.6375L44.2375 64.4542L44.4667 64.2292C44.5292 64.1583 44.5875 64.1208 44.6458 64.0458L44.8292 63.8167C44.8875 63.7417 44.9125 63.6708 44.9667 63.5917C45.0208 63.5083 45.1 63.4 45.1458 63.3167C45.1958 63.2333 45.2833 63.175 45.2833 63.0917C45.2833 63.0083 45.375 62.9042 45.375 62.8167C45.375 62.7333 45.5125 62.6792 45.5125 62.5917C45.5125 62.5042 45.6042 62.4042 45.6042 62.3167C45.6042 62.2292 45.6917 62.1333 45.6917 62.0458C45.6917 61.9542 45.7833 61.8667 45.7833 61.7708C45.7833 61.6792 45.8292 61.5917 45.8292 61.5C45.8292 61.4083 45.875 61.3208 45.875 61.225C45.875 61.1333 45.9167 61.0042 45.9167 60.9083C45.9167 60.8125 45.9667 60.7292 45.9667 60.6375V60.0917C45.9667 59.9958 45.9208 59.8667 45.9208 59.7708C45.9208 59.6792 45.875 59.5917 45.875 59.5C45.875 59.4042 45.8333 59.3208 45.8333 59.225C45.8333 59.1333 45.7833 59.0458 45.7833 58.9542C45.7833 58.8625 45.6917 58.775 45.6917 58.6833C45.6917 58.5917 45.6042 58.5 45.6042 58.4083C45.6042 58.3208 45.5125 58.225 45.5125 58.1375C45.5125 58.05 45.375 57.95 45.375 57.8625C45.375 57.7792 45.2833 57.7208 45.2833 57.6375C45.2833 57.5542 45.2 57.4458 45.1458 57.3625C45.1 57.2833 45.0208 57.2167 44.9667 57.1375C44.9125 57.0542 44.8833 56.9833 44.8292 56.9083C44.775 56.8333 44.7083 56.7542 44.6458 56.6833C44.5875 56.6083 44.5292 56.525 44.4667 56.4542C44.4 56.3833 44.3042 56.3417 44.2375 56.275C44.1708 56.2042 44.1292 56.1083 44.0583 56.0458C43.9875 55.9792 43.9042 55.9208 43.8292 55.8625C43.7542 55.8042 43.6792 55.7375 43.6042 55.6833C43.525 55.625 43.4542 55.6 43.375 55.5458C43.2917 55.4917 43.2292 55.4125 43.1458 55.3625C43.0667 55.3167 42.9583 55.225 42.875 55.225C42.7917 55.225 42.7333 55.1375 42.6458 55.1375C42.5625 55.1375 42.4625 55 42.375 55C42.2875 55 42.1917 54.9083 42.1042 54.9083C42.0125 54.9083 41.9208 54.8167 41.8292 54.8167C41.7375 54.8167 41.65 54.725 41.5583 54.725C41.4625 54.725 41.375 54.6833 41.2833 54.6833C41.1917 54.6833 41.1042 54.6375 41.0125 54.6375C40.9167 54.6375 40.8333 54.5917 40.7375 54.5917C40.6458 54.5917 40.5167 54.5458 40.4208 54.5458ZM60.3292 54.5458H60.9208C61.0167 54.5458 61.1 54.5875 61.1917 54.5875C61.2875 54.5875 61.3708 54.6375 61.4667 54.6375C61.5583 54.6375 61.6458 54.6792 61.7375 54.6792C61.8292 54.6792 61.9167 54.725 62.0125 54.725C62.1042 54.725 62.2375 54.8167 62.3292 54.8167C62.4208 54.8167 62.4667 54.9083 62.5583 54.9083C62.6458 54.9083 62.7417 55 62.8292 55C62.9167 55 63.0167 55.1375 63.1042 55.1375C63.1875 55.1375 63.2917 55.225 63.375 55.225C63.4583 55.225 63.5208 55.3167 63.6042 55.3625C63.6833 55.4125 63.75 55.4917 63.8292 55.5458C63.9083 55.6 63.9792 55.625 64.0583 55.6833C64.1333 55.7375 64.2125 55.8042 64.2833 55.8625C64.3583 55.925 64.4417 55.9792 64.5125 56.0458C64.5833 56.1083 64.6708 56.2042 64.7375 56.2708L64.9208 56.4542C64.9833 56.525 65.0458 56.6083 65.1 56.6833L65.2833 56.9083C65.3417 56.9875 65.4125 57.0583 65.4667 57.1375C65.5167 57.2167 65.55 57.2833 65.6042 57.3625C65.65 57.4458 65.7375 57.5542 65.7375 57.6375C65.7375 57.7208 65.875 57.7792 65.875 57.8625C65.875 57.9458 65.9667 58.05 65.9667 58.1375C65.9667 58.225 66.1042 58.3208 66.1042 58.4083C66.1042 58.4958 66.1917 58.5917 66.1917 58.6833C66.1917 58.775 66.2375 58.8625 66.2375 58.9542C66.2375 59.05 66.3292 59.1375 66.3292 59.2292C66.3292 59.3208 66.375 59.4042 66.375 59.5V59.775C66.375 59.8667 66.4167 59.9958 66.4167 60.0917V60.6333C66.4167 60.7333 66.375 60.8125 66.375 60.9083V61.225C66.375 61.3208 66.3333 61.4083 66.3333 61.5C66.3333 61.5917 66.2375 61.6792 66.2375 61.775C66.2375 61.8625 66.1958 61.9542 66.1958 62.0458C66.1958 62.1375 66.1042 62.2292 66.1042 62.3167C66.1042 62.4083 65.9667 62.5042 65.9667 62.5917C65.9667 62.675 65.875 62.7333 65.875 62.8167C65.875 62.9042 65.7375 63.0083 65.7375 63.0917C65.7375 63.175 65.6542 63.2375 65.6042 63.3167C65.5542 63.4 65.5208 63.5125 65.4667 63.5917C65.4125 63.6708 65.3417 63.7417 65.2833 63.8167C65.2292 63.8958 65.1583 63.9708 65.1042 64.0458C65.0417 64.1208 64.9833 64.1583 64.9208 64.225C64.8583 64.2958 64.8083 64.3875 64.7375 64.4542C64.6708 64.5208 64.5833 64.5708 64.5125 64.6375C64.4417 64.7 64.3542 64.7625 64.2833 64.8167L64.0583 65C63.9792 65.0583 63.9083 65.1292 63.8292 65.1833L63.6042 65.3167C63.5208 65.3667 63.4583 65.4542 63.375 65.4542C63.2917 65.4542 63.1875 65.5917 63.1042 65.5917C63.0208 65.5917 62.9167 65.725 62.8292 65.725C62.7417 65.725 62.6458 65.8167 62.5583 65.8167C62.4667 65.8167 62.4208 65.9083 62.3292 65.9083C62.2417 65.9083 62.1042 66 62.0125 66C61.9208 66 61.8333 66.0417 61.7375 66.0417C61.6458 66.0417 61.5583 66.0917 61.4667 66.0917C61.3708 66.0917 61.2875 66.1333 61.1917 66.1333H60.0583C59.9625 66.1333 59.8792 66.0917 59.7833 66.0917C59.6917 66.0917 59.6042 66.0458 59.5125 66.0458C59.4167 66.0458 59.3292 66 59.2375 66C59.1458 66 59.0125 65.9083 58.9208 65.9083C58.8292 65.9083 58.7833 65.8167 58.6917 65.8167C58.6083 65.8167 58.5083 65.7292 58.4208 65.7292C58.3333 65.7292 58.2333 65.5917 58.1458 65.5917C58.0625 65.5917 57.9583 65.4542 57.875 65.4542C57.7917 65.4542 57.7292 65.3708 57.6458 65.3167L57.4208 65.1833C57.3417 65.1292 57.2708 65.0583 57.1917 65C57.1167 64.9458 57.0417 64.8792 56.9667 64.8167C56.8917 64.7583 56.8083 64.7 56.7375 64.6375C56.6667 64.575 56.5792 64.5208 56.5125 64.4542C56.4458 64.3875 56.3917 64.2958 56.3292 64.2292C56.2667 64.1583 56.2083 64.1208 56.15 64.0458L55.9667 63.8167C55.9083 63.7417 55.8417 63.6708 55.7833 63.5917C55.7333 63.5125 55.7 63.4 55.6458 63.3167C55.6 63.2333 55.5125 63.175 55.5125 63.0917C55.5125 63.0083 55.375 62.9042 55.375 62.8167C55.375 62.7333 55.2833 62.6792 55.2833 62.5917C55.2833 62.5042 55.1458 62.4042 55.1458 62.3167C55.1458 62.2292 55.0583 62.1375 55.0583 62.0458C55.0583 61.9542 55.0125 61.8667 55.0125 61.7708C55.0125 61.6792 54.9208 61.5917 54.9208 61.5C54.9208 61.4083 54.875 61.3208 54.875 61.225V60.9083C54.875 60.8125 54.8333 60.7292 54.8333 60.6375V60.0917C54.8333 59.9958 54.875 59.8667 54.875 59.7708V59.5C54.875 59.4042 54.9167 59.3208 54.9167 59.225C54.9167 59.1333 55.0125 59.0458 55.0125 58.9542C55.0125 58.8625 55.0542 58.7708 55.0542 58.6833C55.0542 58.5917 55.15 58.5 55.15 58.4083C55.15 58.3208 55.2833 58.225 55.2833 58.1375C55.2833 58.05 55.375 57.95 55.375 57.8625C55.375 57.7792 55.5125 57.7208 55.5125 57.6375C55.5125 57.5542 55.5958 57.4458 55.6458 57.3625C55.6958 57.2792 55.7292 57.2167 55.7833 57.1375C55.8375 57.0542 55.9083 56.9833 55.9667 56.9083C56.0208 56.8333 56.0875 56.7542 56.1458 56.6833C56.2083 56.6083 56.2667 56.525 56.3292 56.4542C56.3917 56.3833 56.4458 56.3375 56.5125 56.275L56.7375 56.0458C56.8083 55.9833 56.8917 55.9208 56.9667 55.8625C57.0375 55.8042 57.1167 55.7375 57.1917 55.6833C57.2708 55.625 57.3417 55.6 57.4208 55.5458C57.5 55.4917 57.5667 55.4125 57.6458 55.3625C57.7292 55.3167 57.7917 55.225 57.875 55.225C57.9583 55.225 58.0625 55.1375 58.15 55.1375C58.2333 55.1375 58.3333 55 58.4208 55C58.5083 55 58.6042 54.9083 58.6917 54.9083C58.7833 54.9083 58.8292 54.8167 58.9208 54.8167C59.0125 54.8167 59.1458 54.725 59.2375 54.725C59.3292 54.725 59.4208 54.6833 59.5125 54.6833C59.6042 54.6833 59.6917 54.6375 59.7833 54.6375C59.8792 54.6375 59.9625 54.5917 60.0583 54.5917C60.15 54.5917 60.2333 54.5458 60.3292 54.5458Z" fill="#F9AB04"></path></svg>