<svg xmlns="http://www.w3.org/2000/svg" width="100" height="100" viewBox="0 0 100 100" fill="none"><path d="M30.1334 14.5833L69.9647 14.6375C70.6563 14.6375 71.2959 15.0083 71.6418 15.6062L91.6043 50.0729C91.9501 50.6708 91.9522 51.4062 91.6063 52.0062L71.7397 86.4167C71.5697 86.7102 71.3254 86.9537 71.0313 87.1227C70.7373 87.2917 70.4038 87.3801 70.0647 87.3792L30.2334 87.325C29.8936 87.3244 29.5598 87.2346 29.2655 87.0646C28.9712 86.8946 28.7266 86.6504 28.5563 86.3562L8.59384 51.8917C8.42382 51.5983 8.33411 51.2654 8.33374 50.9263C8.33338 50.5873 8.42237 50.2541 8.59176 49.9604L28.4584 15.5479C28.6281 15.254 28.8723 15.0101 29.1664 14.8407C29.4605 14.6713 29.7941 14.5826 30.1334 14.5833ZM33.4938 20.3854C33.1545 20.3846 32.8209 20.4734 32.5268 20.6428C32.2327 20.8121 31.9885 21.0561 31.8188 21.35L15.298 49.9667C15.1279 50.2604 15.0383 50.5939 15.0383 50.9333C15.0383 51.2728 15.1279 51.6062 15.298 51.9L31.9022 80.5646C32.0725 80.8587 32.317 81.103 32.6113 81.273C32.9056 81.443 33.2394 81.5328 33.5793 81.5333L66.7043 81.5771C67.0436 81.5778 67.3772 81.489 67.6713 81.3197C67.9654 81.1503 68.2096 80.9064 68.3793 80.6125L84.9001 51.9958C85.0702 51.702 85.1598 51.3686 85.1598 51.0292C85.1598 50.6897 85.0702 50.3563 84.9001 50.0625L68.2959 21.4C68.1256 21.1059 67.8811 20.8616 67.5868 20.6916C67.2925 20.5216 66.9587 20.4318 66.6188 20.4312L33.4938 20.3854ZM49.9855 33.5917C54.6821 33.5917 59.1862 35.4573 62.5072 38.7783C65.8281 42.0993 67.6938 46.6034 67.6938 51.3C67.6938 55.9965 65.8281 60.5007 62.5072 63.8217C59.1862 67.1426 54.6821 69.0083 49.9855 69.0083C45.289 69.0083 40.7848 67.1426 37.4638 63.8217C34.1429 60.5007 32.2772 55.9965 32.2772 51.3C32.2772 46.6034 34.1429 42.0993 37.4638 38.7783C40.7848 35.4573 45.289 33.5917 49.9855 33.5917ZM49.9855 40.2583C47.0571 40.2583 44.2486 41.4216 42.1779 43.4923C40.1072 45.5631 38.9438 48.3716 38.9438 51.3C38.9438 54.2284 40.1072 57.0369 42.1779 59.1076C44.2486 61.1783 47.0571 62.3417 49.9855 62.3417C52.9139 62.3417 55.7224 61.1783 57.7932 59.1076C59.8639 57.0369 61.0272 54.2284 61.0272 51.3C61.0272 48.3716 59.8639 45.5631 57.7932 43.4923C55.7224 41.4216 52.9139 40.2583 49.9855 40.2583Z" fill="#221816"></path></svg>