<svg xmlns="http://www.w3.org/2000/svg" width="100" height="100" viewBox="0 0 100 100" fill="none"><path d="M82.0833 77.9167H42.9166C41.6666 77.9167 40.8333 77.0833 40.8333 75.8333C40.8333 74.5833 41.6666 73.75 42.9166 73.75H52.9166V48.75L36.2499 27.5L19.5833 48.75V73.75H27.4999C28.7499 73.75 29.5833 74.5833 29.5833 75.8333C29.5833 77.0833 28.7499 77.9167 27.4999 77.9167H19.1666C17.0833 77.9167 15.8333 76.25 15.8333 74.5833V47.9167C15.8333 47.5 15.8333 47.0833 16.2499 46.6667L34.9999 22.9167V22.5L35.4166 22.0833H65.4166C66.2499 22.0833 66.6666 22.5 67.0833 22.9167L72.9166 30.4167L73.3333 30.8333L85.4166 46.6667C85.8333 47.0833 85.8333 47.5 85.8333 47.9167V74.5833C85.4166 76.25 83.7499 77.9167 82.0833 77.9167ZM74.9999 45.8333H79.1666L76.2499 42.0833H72.4999L74.9999 45.8333ZM65.4166 45.8333H69.9999L67.0833 42.0833H62.4999L65.4166 45.8333ZM55.4166 45.8333H59.9999L57.0833 42.0833H52.4999L55.4166 45.8333ZM69.1666 37.9167H72.9166L69.5833 33.75H65.8333L69.1666 37.9167ZM59.5833 37.9167H64.1666L60.8333 33.75H56.2499L59.5833 37.9167ZM49.5833 37.9167H54.1666L50.8333 33.75H45.8333L49.5833 37.9167ZM62.9166 29.5833H66.6666L63.7499 25.8333H59.9999L62.9166 29.5833ZM52.9166 29.5833H57.4999L54.9999 25.8333H50.4166L52.9166 29.5833ZM42.9166 29.5833H47.9166L45.4166 25.8333H39.9999L42.9166 29.5833ZM32.0833 71.25H31.2499C30.4166 70.8333 29.9999 70 29.9999 69.1667V59.1667H24.5833C23.7499 59.1667 22.9166 58.75 22.9166 57.9167C22.4999 57.0833 22.4999 56.25 22.9166 55.8333L37.4999 36.25C37.9166 35.4167 39.1666 35 39.9999 35.4167C40.8333 35.8333 41.2499 36.6667 41.2499 37.5L39.9999 50H45.8333C46.6666 50 47.4999 50.4167 47.9166 51.25C48.3333 52.0833 48.3333 52.9167 47.4999 53.3333L33.7499 70C33.3333 70.8333 32.9166 71.25 32.0833 71.25ZM28.7499 55H32.0833C33.3333 55 34.1666 55.8333 34.1666 57.0833V63.3333L41.6666 54.1667H37.4999C37.0833 54.1667 36.2499 53.75 35.8333 53.3333C35.4166 52.9167 35.4166 52.5 35.4166 51.6667L36.2499 44.5833L28.7499 55ZM73.7499 50H57.0833V73.75H81.6666V50H73.7499Z" fill="#221816"></path></svg>