<svg xmlns="http://www.w3.org/2000/svg" width="80" height="80" viewBox="0 0 80 80" fill="none"><path d="M39.6334 58.5333H11.1167V11.5H68.1667V44.7833H73.1667V10.6333C73.1667 9.53711 72.7312 8.48578 71.9561 7.71063C71.1809 6.93548 70.1296 6.5 69.0334 6.5H10.25C9.1538 6.5 8.10247 6.93548 7.32732 7.71063C6.55217 8.48578 6.1167 9.53711 6.1167 10.6333V59.4C6.1167 60.4962 6.55217 61.5476 7.32732 62.3227C8.10247 63.0979 9.1538 63.5333 10.25 63.5333H39.65V58.5333H39.6334ZM39.5667 68.4H15.2167C13.8334 68.4 12.7167 69.5167 12.7167 70.9C12.7167 72.2833 13.8334 73.4 15.2167 73.4H39.5667C40.95 73.4 42.0667 72.2833 42.0667 70.9C42.0667 69.5167 40.95 68.4 39.5667 68.4Z" fill="#F9AB04"></path><path d="M73.3 53.1167C73.2031 52.7574 73.027 52.4244 72.7846 52.1421C72.5423 51.8597 72.2398 51.6352 71.8994 51.485C71.5589 51.3348 71.1892 51.2626 70.8173 51.2739C70.4454 51.2851 70.0807 51.3795 69.75 51.55C69.3833 51.7334 68.9333 51.6167 68.7333 51.2667C68.6826 51.1792 68.6498 51.0826 68.6366 50.9824C68.6235 50.8822 68.6302 50.7803 68.6566 50.6827C68.6829 50.5852 68.7283 50.4937 68.7901 50.4138C68.8519 50.3338 68.9289 50.2668 69.0166 50.2167C69.6666 49.8334 70.1 49.1667 70.2166 48.4334C70.3333 47.7 70.0833 46.9334 69.5833 46.3834C67.4 44 64.5833 42.35 61.45 41.6C60.75 41.4334 60.0166 41.5667 59.4333 41.9834C58.85 42.3834 58.4666 43.0167 58.3833 43.7334C58.3333 44.1167 58.0166 44.4167 57.6333 44.4167C57.25 44.4167 56.9333 44.1167 56.8833 43.7334C56.8 43.0334 56.4166 42.3834 55.8333 41.9834C55.25 41.5834 54.5166 41.4334 53.8166 41.6C50.812 42.3232 48.0767 43.8904 45.9333 46.1167C45.4739 46.5942 45.2228 47.2346 45.2353 47.8972C45.2478 48.5597 45.5228 49.1902 46 49.65C46.2166 49.85 46.35 50.2334 46.1333 50.5834C45.9333 50.9334 45.5166 51.0167 45.2333 50.9334C44.6 50.7334 43.9166 50.8 43.3333 51.1C42.75 51.4167 42.3 51.9334 42.1 52.5667C41.6166 54.1167 41.3833 55.7334 41.3833 57.3667C41.3833 58.7167 41.5666 60.0833 41.9166 61.4667C42.25 62.7667 43.5833 63.5667 44.8833 63.2667C45.1666 63.2 45.5333 63.2834 45.7333 63.6167C45.95 63.9834 45.8 64.3667 45.5833 64.5667C44.5833 65.4833 44.5166 67.0333 45.4 68.05C47.397 70.3558 50.0104 72.0441 52.9333 72.9167C53.6 73.1167 54.3166 73.0334 54.9166 72.6834C55.5166 72.3334 55.95 71.75 56.1 71.0833C56.1666 70.8 56.4333 70.4833 56.85 70.4833C57.2333 70.4833 57.55 70.7834 57.6 71.1667C57.6681 71.7772 57.9593 72.341 58.4176 72.7501C58.8758 73.1592 59.469 73.3847 60.0833 73.3833C60.2333 73.3833 60.3833 73.3667 60.5333 73.35C63.65 72.7834 66.5333 71.3334 68.8333 69.1334C69.0984 68.8782 69.3044 68.568 69.4366 68.2247C69.5689 67.8813 69.6243 67.5132 69.5989 67.1461C69.5734 66.779 69.4678 66.422 69.2895 66.1002C69.1111 65.7783 68.8644 65.4995 68.5666 65.2833C68.4141 65.1725 68.3066 65.0104 68.2638 64.8268C68.2209 64.6432 68.2456 64.4503 68.3333 64.2834C68.4376 64.1094 68.6053 63.9826 68.8011 63.9298C68.997 63.8769 69.2057 63.9021 69.3833 64C70.0333 64.3667 70.8 64.4333 71.5 64.1667C72.2 63.9 72.7333 63.35 72.9833 62.65C73.5833 60.9167 73.8833 59.1334 73.8833 57.35C73.8833 55.95 73.6833 54.5333 73.3 53.1167ZM68.7666 58.9334C66.85 59.0167 65.0166 60.0334 64 61.8167C63.0833 63.4167 63 65.2667 63.65 66.8667C62.9833 67.3 62.2666 67.65 61.5166 67.9167C60.986 67.1637 60.2819 66.5495 59.4638 66.126C58.6458 65.7025 57.7378 65.482 56.8166 65.4834C55.1166 65.4834 53.5833 66.2 52.5166 67.4C51.7833 67.0167 51.0833 66.5667 50.45 66.0334C51.05 64.4667 50.9333 62.6667 50.0333 61.1167C49.6449 60.4401 49.1222 59.85 48.4974 59.3829C47.8726 58.9157 47.1588 58.5812 46.4 58.4C46.3189 57.5565 46.3356 56.7064 46.45 55.8667C47.2675 55.7201 48.0438 55.3989 48.7259 54.9249C49.4079 54.451 49.9797 53.8354 50.4021 53.1203C50.8245 52.4051 51.0877 51.6073 51.1736 50.7812C51.2595 49.955 51.1662 49.1201 50.9 48.3334C51.5666 47.85 52.2666 47.4334 53.0166 47.1C54.0833 48.5 55.75 49.3834 57.6 49.3834C59.45 49.3834 61.1333 48.5 62.1833 47.1C62.9 47.4167 63.5833 47.8167 64.2166 48.2834C63.3833 49.9667 63.3666 52.0333 64.3666 53.7667C64.8241 54.5649 65.4676 55.2409 66.2423 55.7371C67.0171 56.2333 67.9002 56.535 68.8166 56.6167C68.8333 56.8667 68.85 57.1167 68.85 57.3667C68.8833 57.8834 68.85 58.4 68.7666 58.9334Z" fill="#F9AB04"></path><path d="M57.6334 50.2667C53.7334 50.2667 50.55 53.45 50.55 57.35C50.55 61.25 53.7334 64.4333 57.6334 64.4333C61.5334 64.4333 64.7167 61.25 64.7167 57.35C64.7167 53.45 61.5334 50.2667 57.6334 50.2667ZM57.6334 59.45C57.3597 59.45 57.0888 59.3962 56.836 59.2915C56.5832 59.1868 56.3535 59.0334 56.16 58.8399C55.9665 58.6465 55.813 58.4168 55.7083 58.164C55.6035 57.9112 55.5496 57.6403 55.5496 57.3667C55.5496 57.093 55.6035 56.8221 55.7083 56.5693C55.813 56.3165 55.9665 56.0868 56.16 55.8934C56.3535 55.6999 56.5832 55.5465 56.836 55.4418C57.0888 55.3371 57.3597 55.2833 57.6334 55.2833C58.1858 55.2834 58.7156 55.503 59.1062 55.8937C59.4969 56.2843 59.7163 56.8142 59.7163 57.3667C59.7163 57.9191 59.4969 58.449 59.1062 58.8397C58.7156 59.2303 58.1858 59.4499 57.6334 59.45ZM18.1167 17.8V47.3333C18.1167 48.7167 19.2334 49.8333 20.6167 49.8333C22 49.8333 23.1167 48.7167 23.1167 47.3333V17.8C23.1167 16.4167 22 15.3 20.6167 15.3C19.2334 15.3 18.1167 16.4167 18.1167 17.8ZM28.45 17.8V35C28.45 36.3833 29.5667 37.5 30.95 37.5C32.3334 37.5 33.45 36.3833 33.45 35V17.8C33.45 16.4167 32.3334 15.3 30.95 15.3C29.5667 15.3 28.45 16.4167 28.45 17.8ZM38.7667 17.8V35C38.7667 36.3833 39.8834 37.5 41.2667 37.5C42.65 37.5 43.7667 36.3833 43.7667 35V17.8C43.7667 16.4167 42.65 15.3 41.2667 15.3C39.8834 15.3 38.7667 16.4167 38.7667 17.8Z" fill="#F9AB04"></path></svg>