<svg xmlns="http://www.w3.org/2000/svg" width="50" height="50" viewBox="0 0 50 50" fill="none"><path d="M7.8125 4.6875C7.8125 4.2731 7.97712 3.87567 8.27015 3.58265C8.56317 3.28962 8.9606 3.125 9.375 3.125C9.7894 3.125 10.1868 3.28962 10.4799 3.58265C10.7729 3.87567 10.9375 4.2731 10.9375 4.6875V23.4375C10.9375 23.8519 10.7729 24.2493 10.4799 24.5424C10.1868 24.8354 9.7894 25 9.375 25C8.9606 25 8.56317 24.8354 8.27015 24.5424C7.97712 24.2493 7.8125 23.8519 7.8125 23.4375V4.6875ZM7.8125 35.9375C7.8125 35.5231 7.97712 35.1257 8.27015 34.8326C8.56317 34.5396 8.9606 34.375 9.375 34.375C9.7894 34.375 10.1868 34.5396 10.4799 34.8326C10.7729 35.1257 10.9375 35.5231 10.9375 35.9375V45.3125C10.9375 45.7269 10.7729 46.1243 10.4799 46.4174C10.1868 46.7104 9.7894 46.875 9.375 46.875C8.9606 46.875 8.56317 46.7104 8.27015 46.4174C7.97712 46.1243 7.8125 45.7269 7.8125 45.3125V35.9375ZM23.4375 4.6875C23.4375 4.2731 23.6021 3.87567 23.8951 3.58265C24.1882 3.28962 24.5856 3.125 25 3.125C25.4144 3.125 25.8118 3.28962 26.1049 3.58265C26.3979 3.87567 26.5625 4.2731 26.5625 4.6875V15.625C26.5625 16.0394 26.3979 16.4368 26.1049 16.7299C25.8118 17.0229 25.4144 17.1875 25 17.1875C24.5856 17.1875 24.1882 17.0229 23.8951 16.7299C23.6021 16.4368 23.4375 16.0394 23.4375 15.625V4.6875ZM23.4375 26.5625C23.4375 26.1481 23.6021 25.7507 23.8951 25.4576C24.1882 25.1646 24.5856 25 25 25C25.4144 25 25.8118 25.1646 26.1049 25.4576C26.3979 25.7507 26.5625 26.1481 26.5625 26.5625V45.3125C26.5625 45.7269 26.3979 46.1243 26.1049 46.4174C25.8118 46.7104 25.4144 46.875 25 46.875C24.5856 46.875 24.1882 46.7104 23.8951 46.4174C23.6021 46.1243 23.4375 45.7269 23.4375 45.3125V26.5625ZM39.0625 21.875C39.0625 21.4606 39.2271 21.0632 39.5201 20.7701C39.8132 20.4771 40.2106 20.3125 40.625 20.3125C41.0394 20.3125 41.4368 20.4771 41.7299 20.7701C42.0229 21.0632 42.1875 21.4606 42.1875 21.875V45.3125C42.1875 45.7269 42.0229 46.1243 41.7299 46.4174C41.4368 46.7104 41.0394 46.875 40.625 46.875C40.2106 46.875 39.8132 46.7104 39.5201 46.4174C39.2271 46.1243 39.0625 45.7269 39.0625 45.3125V21.875ZM39.0625 4.6875C39.0625 4.2731 39.2271 3.87567 39.5201 3.58265C39.8132 3.28962 40.2106 3.125 40.625 3.125C41.0394 3.125 41.4368 3.28962 41.7299 3.58265C42.0229 3.87567 42.1875 4.2731 42.1875 4.6875V9.375C42.1875 9.7894 42.0229 10.1868 41.7299 10.4799C41.4368 10.7729 41.0394 10.9375 40.625 10.9375C40.2106 10.9375 39.8132 10.7729 39.5201 10.4799C39.2271 10.1868 39.0625 9.7894 39.0625 9.375V4.6875Z" fill="#F9AB04"></path></svg>