<svg xmlns="http://www.w3.org/2000/svg" width="50" height="50" viewBox="0 0 50 50" fill="none"><path d="M44.5693 34.4271L35.2182 25.0346L44.2292 15.9837C45.5898 14.6177 45.5898 12.483 44.2292 11.1168L38.8734 5.73728C37.5136 4.37108 35.3883 4.37108 34.0277 5.73728L25.0168 14.7882L15.6658 5.39543C14.3052 4.02948 12.1803 4.02948 10.8201 5.39543L5.37926 10.8603C4.01941 12.2266 4.01941 14.3613 5.37926 15.7278L14.7306 25.1203L6.99446 32.8901C6.48471 33.4025 5.71926 36.7323 4.78446 42.6242V42.7096C4.78446 43.3927 5.03951 44.0755 5.46456 44.5876C5.88926 45.1005 6.65441 45.3566 7.33451 45.2713H7.41951C13.3707 44.3317 16.6859 43.5632 17.281 42.9658L25.0168 35.1957L34.3681 44.5879C35.7283 45.9541 37.8536 45.9541 39.2135 44.5879L44.6543 39.1233C45.9295 37.9278 45.9295 35.708 44.5693 34.4271ZM35.4926 7.35853C36.127 6.72183 37.1573 6.72183 37.7121 7.35853L42.785 12.4541C43.4191 13.0911 43.4191 14.126 42.785 14.6834L40.2485 17.2307L32.9565 9.82678L35.4926 7.35853ZM13.1743 20.3566L17.1255 16.3877C17.4412 16.0702 17.4412 15.594 17.1255 15.2765C16.8092 14.959 16.3354 14.959 16.0187 15.2765L12.0678 19.2454L10.0922 17.2608L14.0434 13.2922C14.3594 12.9747 14.3594 12.4985 14.0434 12.1813C13.7274 11.8638 13.2532 11.8638 12.9372 12.1813L8.98596 16.1499L7.32671 14.4828C6.69471 13.8481 6.69471 12.8951 7.32671 12.2604L12.3838 7.18058C13.0161 6.54533 13.9645 6.54533 14.5968 7.18058L23.2894 15.9115L16.0187 23.214L13.1743 20.3566ZM7.24986 43.6489C6.82446 43.6489 6.48441 43.3073 6.48441 42.8804C6.99451 39.6356 7.67456 35.8788 8.18466 34.4271L15.6658 41.9411C14.2205 42.4534 10.565 43.1366 7.24986 43.6489ZM17.405 39.9433L10.061 32.5658L30.8159 11.7171L38.1598 19.0941L17.405 39.9433ZM42.5591 37.7301L37.6572 42.6537C37.0441 43.2692 36.1253 43.2692 35.5126 42.6537L33.368 40.4995L37.1976 36.6533C37.5041 36.3452 37.5041 35.8836 37.1976 35.5759C36.8911 35.2681 36.4314 35.2681 36.1253 35.5759L32.2957 39.4227L29.9211 37.0375L33.751 33.191C34.0575 32.8833 34.0575 32.422 33.751 32.1142C33.4445 31.8062 32.9849 31.8062 32.6784 32.1142L28.8488 35.9607L27.1638 34.2681L34.2107 27.1903L42.6357 35.653C43.1718 36.1917 43.1718 37.1146 42.5591 37.7301Z" fill="#F9AB04"></path></svg>