<svg xmlns="http://www.w3.org/2000/svg" width="60" height="60" viewBox="0 0 60 60" fill="none"><g clip-path="url(#clip0_167_817)"><path d="M1.12371 30.7357H41.7647C42.3533 30.7357 42.8884 31.2708 42.8884 31.8594C42.8884 32.448 42.3533 32.9831 41.7647 32.9831H1.12371C0.535102 32.9831 0 32.448 0 31.8594C0 31.2708 0.535102 30.7357 1.12371 30.7357ZM4.89618 42.7754H17.6851C18.2737 42.7754 18.8088 43.3105 18.8088 43.8992C18.8088 44.4878 18.2737 45.0229 17.6851 45.0229H4.89618C4.30757 45.0229 3.77247 44.4878 3.77247 43.8992C3.77247 43.3105 4.30757 42.7754 4.89618 42.7754ZM7.1436 20.1942H19.9325C20.5211 20.1942 21.0562 20.7293 21.0562 21.3179C21.0562 21.9065 20.5211 22.4416 19.9325 22.4416H7.1436C6.55499 22.4416 6.01989 21.9065 6.01989 21.3179C6.01989 20.7293 6.55499 20.1942 7.1436 20.1942Z" fill="#F9AB04"></path><path d="M23.3307 54.6547C23.1167 54.6547 22.7956 54.5744 22.5816 54.4406C22.3621 54.2944 22.1897 54.0877 22.0852 53.8456C21.9808 53.6034 21.9487 53.3361 21.993 53.0761L24.4812 39.9126C24.6417 39.2438 25.3106 38.7087 25.9795 38.8692C26.6484 39.0297 27.1835 39.6986 27.0229 40.3675L25.1501 50.4541L56.2127 29.6119L25.4979 9.67941L29.859 25.0903C30.073 25.7592 29.6449 26.5083 28.9493 26.7491C28.2537 26.9899 27.5313 26.5351 27.2905 25.8395L22.0465 7.03065C21.9737 6.76809 21.9864 6.4892 22.0826 6.23429C22.1787 5.97938 22.3535 5.76167 22.5816 5.61263C23.0364 5.31833 23.625 5.23806 24.0799 5.53237L59.4501 28.4882C59.8247 28.7023 60.0387 29.1571 60.0387 29.6119C60.0387 30.0668 59.8247 30.4413 59.4501 30.7356L24.0799 54.4406C23.8569 54.5847 23.5962 54.6592 23.3307 54.6547Z" fill="#F9AB04"></path></g><defs><clipPath id="clip0_167_817"><rect width="60" height="60" fill="white"></rect></clipPath></defs></svg>