<svg xmlns="http://www.w3.org/2000/svg" width="50" height="50" viewBox="0 0 50 50" fill="none"><path d="M24.9997 48.3333C24.833 48.3333 24.7497 48.3333 24.583 48.25C12.4997 44.25 4.33301 32.9167 4.33301 20.1667V8.58333C4.33301 8 4.66634 7.5 5.24967 7.41667L24.6663 1.75C24.9163 1.66667 25.1663 1.66667 25.333 1.75L44.7497 7.41667C45.2497 7.58333 45.6663 8.08333 45.6663 8.58333V20.1667C45.6663 32.9167 37.4997 44.25 25.4163 48.25C25.2497 48.3333 25.1663 48.3333 24.9997 48.3333ZM6.83301 9.5V20.1667C6.83301 31.75 14.1663 41.9167 24.9997 45.75C35.833 41.9167 43.1663 31.75 43.1663 20.1667V9.5L24.9997 4.25L6.83301 9.5Z" fill="#F9AB04"></path><path d="M22.8337 32.1666C22.5003 32.1666 22.167 32 21.917 31.8333L14.417 24.3333C13.917 23.8333 13.917 23.0833 14.417 22.5833C14.917 22.0833 15.667 22.0833 16.167 22.5833L22.8337 29.25L34.917 17.1666C35.417 16.6666 36.167 16.6666 36.667 17.1666C37.167 17.6666 37.167 18.4166 36.667 18.9166L23.7503 31.8333C23.5003 32.0833 23.167 32.1666 22.8337 32.1666Z" fill="#F9AB04"></path></svg>