<svg xmlns="http://www.w3.org/2000/svg" width="50" height="50" viewBox="0 0 50 50" fill="none"><g clip-path="url(#clip0_167_813)"><path d="M1.08876 21.7362H36.0853C36.681 21.7362 37.1741 21.2479 37.1741 20.6474C37.1741 20.0518 36.6859 19.5587 36.0853 19.5587H1.08876C0.488234 19.5635 0 20.0518 0 20.6523C0 21.2479 0.488234 21.7362 1.08876 21.7362Z" fill="#F9AB04"></path><path d="M24.9976 14.1295C25.5981 14.1295 26.0863 13.6412 26.0863 13.0407C26.0863 7.05009 30.9638 2.17264 36.9544 2.17264C42.945 2.17264 47.8225 7.05009 47.8225 13.0407C47.8225 19.0313 42.945 23.9088 36.9544 23.9088C36.9349 23.9088 36.9202 23.9137 36.9007 23.9137C36.8812 23.9137 36.8665 23.9088 36.847 23.9088H10.7607C10.165 23.9088 9.67191 24.397 9.67191 24.9976C9.67191 25.5981 10.1601 26.0863 10.7607 26.0863H36.847C36.8665 26.0863 36.8812 26.0814 36.9007 26.0814C36.9202 26.0814 36.9349 26.0863 36.9544 26.0863C44.1461 26.0863 49.9951 20.2373 49.9951 13.0456C49.9951 5.85392 44.1461 0 36.9544 0C29.7627 0 23.9088 5.84904 23.9088 13.0407C23.9088 13.6412 24.397 14.1295 24.9976 14.1295ZM19.9443 32.6091C19.9297 32.6091 19.915 32.6042 19.9053 32.6042H1.08876C0.488234 32.6042 0 33.0925 0 33.693C0 34.2886 0.488234 34.7818 1.08876 34.7818H19.7832C23.3766 34.7818 26.306 37.7063 26.306 41.3046C26.306 44.9028 23.3815 47.8274 19.7832 47.8274C16.1849 47.8274 13.2604 44.9028 13.2604 41.3046C13.2604 40.704 12.7722 40.2158 12.1717 40.2158C11.5711 40.2158 11.0829 40.704 11.0829 41.3046C11.0829 46.099 14.9839 50 19.7783 50C24.5728 50 28.4738 46.099 28.4738 41.3046C28.4738 36.5589 24.6607 32.697 19.9443 32.6091ZM48.9064 28.259H13.9098C13.3141 28.259 12.821 28.7472 12.821 29.3477C12.821 29.9482 13.3092 30.4365 13.9098 30.4365H48.9064C49.502 30.4365 49.9951 29.9482 49.9951 29.3477C49.9951 28.7472 49.5069 28.259 48.9064 28.259Z" fill="#F9AB04"></path></g><defs><clipPath id="clip0_167_813"><rect width="50" height="50" fill="white"></rect></clipPath></defs></svg>