<svg xmlns="http://www.w3.org/2000/svg" width="60" height="60" viewBox="0 0 60 60" fill="none"><path d="M24.7893 32.3269H24.2451C22.9542 32.2561 21.7419 31.6843 20.8661 30.7333C19.9903 29.7823 19.5201 28.5272 19.5556 27.2348C19.591 25.9425 20.1293 24.715 21.0559 23.8134C21.9825 22.9119 23.2244 22.4075 24.5172 22.4075C25.81 22.4075 27.0518 22.9119 27.9784 23.8134C28.905 24.715 29.4433 25.9425 29.4788 27.2348C29.5142 28.5272 29.044 29.7823 28.1682 30.7333C27.2924 31.6843 26.0802 32.2561 24.7893 32.3269ZM24.7893 24.2953C24.2979 24.2967 23.8139 24.4158 23.378 24.6426C22.942 24.8693 22.5667 25.1972 22.2834 25.5987C22.0002 26.0003 21.8171 26.4638 21.7497 26.9506C21.6823 27.4373 21.7324 27.9332 21.8959 28.3966C22.0593 28.86 22.3314 29.2776 22.6893 29.6143C23.0472 29.951 23.4806 30.1971 23.9531 30.3321C24.4256 30.467 24.9235 30.4868 25.4053 30.3899C25.887 30.2929 26.3386 30.082 26.7221 29.7748C27.0375 29.5228 27.2994 29.2104 27.4927 28.856C27.686 28.5016 27.8068 28.1122 27.848 27.7106C27.9376 26.8994 27.7012 26.0858 27.1909 25.4489C26.6807 24.8119 25.9383 24.4037 25.1271 24.3141L24.7893 24.2953Z" fill="#F9AB04"></path><path d="M24.7982 35.6296C24.4858 35.6492 24.1724 35.6492 23.86 35.6296C21.7018 35.5075 19.6763 34.5486 18.2139 32.9567C16.7516 31.3647 15.9676 29.2653 16.0287 27.1045C16.0898 24.9437 16.9911 22.8919 18.5411 21.3852C20.091 19.8784 22.1675 19.0355 24.3291 19.0355C26.4908 19.0355 28.5672 19.8784 30.1172 21.3852C31.6671 22.8919 32.5684 24.9437 32.6295 27.1045C32.6906 29.2653 31.9067 31.3647 30.4443 32.9567C28.9819 34.5486 26.9564 35.5075 24.7982 35.6296ZM24.7982 20.9738C23.5649 20.9775 22.359 21.338 21.3261 22.0119C20.2931 22.6858 19.4773 23.6442 18.977 24.7715C18.4767 25.8988 18.3133 27.1468 18.5067 28.3649C18.7 29.583 19.2417 30.7191 20.0664 31.6361C20.8911 32.5532 21.9636 33.2119 23.1544 33.5329C24.3452 33.8539 25.6035 33.8233 26.7774 33.445C27.9512 33.0667 28.9905 32.3567 29.7698 31.4008C30.5491 30.4448 31.0351 29.2838 31.1691 28.0578C31.3512 26.3779 30.8614 24.6943 29.8067 23.3741C28.7521 22.054 27.2181 21.2047 25.5395 21.0113C25.2839 20.9852 25.0269 20.9758 24.7701 20.9832L24.7982 20.9738Z" fill="#F9AB04"></path><path d="M17.6024 43.5768C17.4213 43.5908 17.2393 43.5908 17.0582 43.5768C16.0852 43.4716 15.1651 43.0805 14.4141 42.453C13.6631 41.8254 13.1148 40.9895 12.8384 40.0506C12.562 39.1118 12.5699 38.1121 12.861 37.1777C13.1521 36.2433 13.7135 35.4161 14.4743 34.8004C15.235 34.1847 16.1611 33.8082 17.1357 33.7183C18.1102 33.6284 19.0896 33.8291 19.9502 34.2952C20.8107 34.7613 21.514 35.4719 21.9712 36.3372C22.4283 37.2026 22.6189 38.1839 22.519 39.1575C22.3855 40.3678 21.8118 41.4868 20.907 42.3017C20.0022 43.1165 18.8294 43.5703 17.6118 43.5768H17.6024ZM17.6024 35.5452C16.9192 35.5558 16.259 35.7935 15.7259 36.2207C15.0924 36.7337 14.6876 37.4764 14.5997 38.2867C14.5119 39.0971 14.748 39.9093 15.2567 40.5462C15.6434 40.9967 16.1521 41.3258 16.7215 41.4938C17.291 41.6617 17.8969 41.6614 18.4661 41.4928C19.0354 41.3242 19.5438 40.9945 19.9299 40.5436C20.316 40.0926 20.5635 39.5395 20.6424 38.9511C20.7267 38.1404 20.4869 37.3293 19.9753 36.6948C19.4638 36.0602 18.7221 35.6537 17.912 35.5639L17.6024 35.5452Z" fill="#F9AB04"></path><path d="M17.6022 46.8889H16.6639C14.6343 46.6572 12.7621 45.683 11.4076 44.1537C10.0532 42.6244 9.31224 40.6482 9.32738 38.6055C9.34252 36.5627 10.1127 34.5977 11.4896 33.0887C12.8666 31.5797 14.7531 30.6333 16.7859 30.4316C17.0348 30.4092 17.2823 30.4866 17.4741 30.6467C17.6659 30.8069 17.7862 31.0366 17.8086 31.2855C17.831 31.5343 17.7537 31.7819 17.5935 31.9737C17.4334 32.1655 17.2037 32.2858 16.9548 32.3082C15.4983 32.4486 14.1338 33.0839 13.0889 34.1083C12.044 35.1327 11.3818 36.4843 11.2126 37.9378C11.0668 39.3991 11.4288 40.8659 12.2377 42.0916C13.0466 43.3172 14.253 44.2269 15.6539 44.6674C17.0548 45.1079 18.5646 45.0525 19.9294 44.5104C21.2942 43.9683 22.4306 42.9726 23.1474 41.6909C23.2718 41.4732 23.4777 41.3138 23.7196 41.2478C23.9615 41.1818 24.2198 41.2146 24.4375 41.3391C24.6553 41.4635 24.8147 41.6693 24.8807 41.9112C24.9466 42.1532 24.9138 42.4114 24.7894 42.6292C24.0777 43.9136 23.0368 44.9852 21.7736 45.7339C20.5104 46.4826 19.0706 46.8813 17.6022 46.8889ZM29.4526 33.9595C29.3093 33.9592 29.168 33.926 29.0395 33.8626C28.911 33.7992 28.7988 33.7072 28.7114 33.5936C28.56 33.3969 28.4928 33.1481 28.5245 32.9019C28.5561 32.6557 28.6841 32.4321 28.8803 32.28L38.2161 25.0272L38.901 24.5017C40.3001 23.6287 41.4582 22.419 42.2694 20.9832C42.7201 20.0522 42.911 19.0166 42.8218 17.9861C42.7326 16.9555 42.3667 15.9682 41.7627 15.1284C40.9511 14.0579 39.8356 13.257 38.5619 12.8302C37.2881 12.4033 35.9152 12.3705 34.6225 12.7358C32.4832 13.28 30.663 14.8094 28.899 16.2825C28.2047 16.8642 27.4916 17.4553 26.7691 17.9901L21.1395 22.1279C21.0411 22.2099 20.9269 22.271 20.804 22.3072C20.6811 22.3434 20.552 22.354 20.4248 22.3385C20.2977 22.3229 20.175 22.2814 20.0645 22.2167C19.9539 22.1519 19.8578 22.0651 19.782 21.9618C19.7063 21.8584 19.6525 21.7407 19.624 21.6157C19.5955 21.4908 19.5929 21.3614 19.6164 21.2354C19.6398 21.1094 19.6888 20.9896 19.7604 20.8833C19.8319 20.777 19.9245 20.6865 20.0323 20.6173L25.662 16.4795C26.3469 15.9822 27.0037 15.4286 27.7074 14.8469C29.6309 13.2331 31.62 11.563 34.1627 10.9156C35.8108 10.4505 37.561 10.4947 39.1836 11.0423C40.8062 11.5898 42.2252 12.6152 43.2546 13.9837C44.0806 15.0891 44.586 16.4008 44.7151 17.7747C44.8442 19.1486 44.5921 20.5314 43.9865 21.7714C43.0513 23.4896 41.6954 24.9423 40.0457 25.9936C39.8205 26.1625 39.5953 26.3314 39.3795 26.5097L30.025 33.7531C29.8624 33.8836 29.661 33.9562 29.4526 33.9595ZM31.9015 44.0741H31.3573C30.0886 43.8876 28.9417 43.2163 28.1577 42.2016C27.3737 41.1868 27.0137 39.9076 27.1534 38.6329C27.2932 37.3582 27.9218 36.1873 28.907 35.3665C29.8922 34.5457 31.1573 34.1389 32.4363 34.2316C33.0831 34.2994 33.7099 34.4952 34.2801 34.8077C34.8504 35.1202 35.3527 35.5432 35.7578 36.0519C36.1649 36.5594 36.4681 37.1421 36.65 37.7667C36.8319 38.3913 36.889 39.0457 36.818 39.6924C36.6798 40.8991 36.1022 42.0127 35.1954 42.8209C34.2886 43.629 33.1161 44.0751 31.9015 44.0741ZM31.9015 36.0519C31.2022 36.052 30.5238 36.2903 29.978 36.7274C29.4197 37.1734 29.0334 37.7992 28.885 38.4982C28.7366 39.1971 28.8352 39.9259 29.1641 40.5603C29.4931 41.1946 30.0318 41.6952 30.6886 41.9767C31.3454 42.2582 32.0794 42.3031 32.7656 42.1038C33.4518 41.9045 34.0476 41.4733 34.4514 40.8838C34.8552 40.2943 35.0419 39.5829 34.9798 38.8711C34.9177 38.1592 34.6106 37.491 34.1108 36.9803C33.6111 36.4696 32.9496 36.1481 32.2393 36.0707L31.9015 36.0519Z" fill="#F9AB04"></path><path d="M31.901 47.4331H30.9627C28.7836 47.1924 26.7891 46.0969 25.4169 44.387C24.0448 42.6771 23.4072 40.4926 23.6442 38.3131C23.7594 37.2639 24.0781 36.2472 24.5825 35.32C24.7069 35.1011 24.9132 34.9405 25.1561 34.8736C25.3989 34.8067 25.6583 34.8391 25.8773 34.9635C26.0963 35.0879 26.2569 35.2942 26.3237 35.5371C26.3906 35.7799 26.3583 36.0393 26.2338 36.2583C25.6106 37.4739 25.3934 38.8572 25.6139 40.2053C25.8345 41.5534 26.4814 42.7953 27.4595 43.7488C28.4377 44.7024 29.6957 45.3173 31.0489 45.5035C32.4022 45.6897 33.7795 45.4372 34.9788 44.7832C36.1781 44.1292 37.1363 43.1081 37.7127 41.8696C38.2891 40.6312 38.4534 39.2406 38.1816 37.9019C37.9097 36.5632 37.216 35.3468 36.2022 34.4313C35.1884 33.5158 33.9078 32.9493 32.5484 32.8148C32.3025 32.7865 32.0777 32.6622 31.923 32.4689C31.7683 32.2755 31.6964 32.0289 31.7227 31.7827C31.751 31.5368 31.8754 31.312 32.0687 31.1573C32.2621 31.0027 32.5087 30.9307 32.7548 30.9571C34.8411 31.2004 36.7564 32.2287 38.1119 33.8331C39.4673 35.4376 40.1611 37.4979 40.0524 39.5954C39.9437 41.6929 39.0406 43.6704 37.5266 45.1262C36.0126 46.582 34.0012 47.4068 31.901 47.4331Z" fill="#F9AB04"></path><path d="M36.527 45.7442C36.3844 45.745 36.2436 45.7133 36.1152 45.6515C35.9867 45.5897 35.8741 45.4995 35.7857 45.3877C35.6344 45.1909 35.5672 44.9422 35.5988 44.696C35.6305 44.4498 35.7584 44.2262 35.9546 44.0741L45.3373 36.8213L46.0223 36.3052C47.3966 35.4289 48.5366 34.2309 49.3438 32.8148C49.7945 31.8838 49.9853 30.8483 49.8962 29.8177C49.807 28.7871 49.4411 27.7998 48.8371 26.96C48.0267 25.8878 46.9117 25.0851 45.6378 24.6565C44.364 24.228 42.9905 24.1937 41.6968 24.558C41.5745 24.6003 41.4447 24.6168 41.3156 24.6065C41.1865 24.5962 41.061 24.5593 40.9469 24.4981C40.8328 24.4369 40.7326 24.3528 40.6526 24.251C40.5726 24.1491 40.5145 24.0319 40.482 23.9065C40.4496 23.7812 40.4434 23.6505 40.4639 23.5226C40.4844 23.3948 40.5311 23.2726 40.6012 23.1637C40.6712 23.0548 40.763 22.9616 40.8709 22.8899C40.9787 22.8182 41.1002 22.7696 41.2277 22.7472C42.8758 22.2821 44.626 22.3263 46.2486 22.8739C47.8711 23.4214 49.2902 24.4468 50.3196 25.8153C51.1438 26.9197 51.6481 28.2297 51.7772 29.6017C51.9063 30.9738 51.6552 32.3548 51.0514 33.5936C50.1165 35.3145 48.7607 36.7703 47.1107 37.8252L46.4445 38.3319L37.0618 45.5847C36.9038 45.6909 36.7173 45.7465 36.527 45.7442ZM14.8528 32.7585C14.6505 32.758 14.4538 32.6921 14.292 32.5706C14.1301 32.4492 14.0119 32.2786 13.955 32.0845C13.898 31.8903 13.9053 31.683 13.9758 31.4933C14.0463 31.3037 14.1762 31.1419 14.3462 31.0321L17.4049 29.0617C17.6165 28.9298 17.8717 28.8874 18.1145 28.9437C18.3574 29 18.5679 29.1505 18.6998 29.362C18.8317 29.5735 18.8741 29.8287 18.8178 30.0716C18.7615 30.3144 18.611 30.5249 18.3995 30.6568L15.3501 32.5803C15.2049 32.6861 15.0323 32.748 14.8528 32.7585Z" fill="#F9AB04"></path></svg>