<svg xmlns="http://www.w3.org/2000/svg" width="48" height="48" viewBox="0 0 48 48" fill="none"><path d="M23.5732 0C36.5679 0 47.1465 10.5797 47.1465 23.5742C47.1463 36.5686 36.5835 47.1475 23.5732 47.1475C10.5788 47.1474 0.00016253 36.5686 0 23.5742C0 10.5797 10.5787 5.27964e-05 23.5732 0ZM23.5732 1.26367C11.2734 1.26375 1.2627 11.2586 1.2627 23.5742C1.26286 35.8897 11.2735 45.8837 23.5732 45.8838C35.873 45.8838 45.8836 35.8739 45.8838 23.5742C45.8838 11.2744 35.8889 1.26367 23.5732 1.26367ZM38.2412 29.084C38.2412 29.8261 38.0203 31.2 37.3887 31.5L24.6631 37.2158C23.4474 37.7526 22.9578 37.7526 21.8369 37.2158L9.11035 31.5C8.44732 31.1367 8.25781 29.8102 8.25781 29.084C9.11039 29.5735 10.3101 30.1107 10.2627 30.0791L23.2578 36.0635L36.2363 30.0791C36.2679 30.0791 37.4202 29.4945 38.2412 29.084ZM38.2578 23.084C38.2578 23.8259 38.0366 25.2154 37.4053 25.5L24.6787 31.2158C23.463 31.7526 22.9736 31.7526 21.8525 31.2158L9.12598 25.5C8.44728 25.1366 8.25781 23.8102 8.25781 23.084C9.11039 23.5734 10.3101 24.1107 10.2627 24.0791L23.2578 30.0635L36.252 24.0791C36.2836 24.0791 37.4368 23.4945 38.2578 23.084ZM21.8525 9.96387C22.9736 9.39545 23.684 9.36389 24.6787 9.96387L37.4053 16.6738C38.368 17.2107 38.3363 19.0576 37.4053 19.5L24.6787 25.2158C23.463 25.7527 22.9736 25.7527 21.8525 25.2158L9.12598 19.5C8.11581 18.9788 8.14725 17.3053 9.12598 16.6738L21.8525 9.96387ZM10.2627 18.0947L23.2578 23.5586L36.252 18.0791L23.2891 11.1162C23.2877 11.1149 23.2728 11.1007 23.2578 11.1006L10.2627 18.0947ZM23.3682 11.1797C23.4943 11.2902 23.4944 11.4317 23.2578 11.1162L23.3682 11.1797Z" fill="#F9AB04"></path></svg>