<svg xmlns="http://www.w3.org/2000/svg" width="43" height="48" viewBox="0 0 43 48" fill="none"><path d="M41.6505 12.2092C41.6353 12.1691 41.6172 12.1302 41.5962 12.0927L41.5873 12.0799C41.0763 11.066 40.2821 10.222 39.301 9.6505L24.0671 0.797612C23.1658 0.275149 22.1425 0 21.1007 0C20.0589 0 19.0356 0.275149 18.1343 0.797612L2.91316 9.64261C1.92883 10.2156 1.13268 11.0629 0.621953 12.0809L0.615043 12.0908C0.59368 12.1288 0.575201 12.1684 0.559761 12.2092C0.188114 12.9934 -0.00314286 13.8508 3.9061e-05 14.7186L0.0839481 32.606C0.0923651 33.6166 0.361477 34.6079 0.865246 35.484C1.36902 36.3601 2.09039 37.0914 2.95956 37.607L18.1106 46.5606C19.03 47.1048 20.08 47.389 21.1484 47.3829C22.2168 47.3768 23.2635 47.0807 24.1767 46.526L39.3978 37.2901C40.2572 36.7707 40.968 36.0383 41.4616 35.1638C41.9551 34.2893 42.2147 33.3022 42.2151 32.298V14.6989C42.2151 13.8252 42.0157 12.9772 41.6505 12.2082V12.2092ZM19.0247 2.3139C19.6554 1.94822 20.3716 1.75564 21.1007 1.75564C21.8298 1.75564 22.5459 1.94822 23.1767 2.3139L38.4106 11.1668C38.8726 11.4353 39.2773 11.7917 39.6021 12.2152L31.8114 16.6465L13.8855 5.30007L19.0257 2.3139H19.0247ZM3.80457 11.1589L12.1708 6.29612L30.0789 17.6317L21.0721 22.7551L2.60615 12.2152C2.93192 11.7887 3.33962 11.4294 3.80457 11.1589ZM3.86183 36.0976C3.25349 35.7369 2.74858 35.2252 2.39595 34.6122C2.04333 33.9991 1.85493 33.3054 1.849 32.5981L1.76509 14.7107C1.76509 14.4096 1.79668 14.1085 1.86183 13.8154L20.1895 24.2763L20.2172 45.528C19.7933 45.4335 19.3868 45.273 19.0128 45.0522L3.86183 36.0976ZM40.4491 32.297C40.4461 32.9992 40.2634 33.6889 39.9183 34.3005C39.5732 34.912 39.0773 35.425 38.4777 35.7906L23.2576 45.0265C22.8643 45.2653 22.4339 45.4368 21.9842 45.5339L21.9556 24.2753L40.3514 13.8124C40.4165 14.1036 40.4501 14.4007 40.4501 14.6999V32.297H40.4491ZM36.8262 21.537C37.0631 21.9614 36.9091 22.4955 36.4827 22.7314L28.5656 27.1055C28.361 27.2181 28.1203 27.2453 27.8957 27.1813C27.6711 27.1174 27.4809 26.9674 27.3662 26.764C27.31 26.6632 27.2743 26.5523 27.2611 26.4377C27.2479 26.323 27.2575 26.2069 27.2894 26.096C27.3212 25.9851 27.3746 25.8816 27.4466 25.7914C27.5186 25.7012 27.6077 25.6261 27.7088 25.5705L35.6258 21.1964C35.8304 21.0832 36.0713 21.0555 36.2962 21.1193C36.5211 21.1831 36.7116 21.3332 36.8262 21.537Z" fill="#F9AB04"></path></svg>