<svg xmlns="http://www.w3.org/2000/svg" width="48" height="48" viewBox="0 0 48 48" fill="none"><path d="M20.0409 40.3299H2.60777V17.3482H42.6897C43.4099 17.3482 43.9936 16.7637 43.9936 16.0427V5.59482V4.83036C43.9936 4.10934 43.4099 3.52487 42.6897 3.52487H41.9578H32.8407V1.3055C32.8407 0.584477 32.257 0 31.5369 0C30.8166 0 30.233 0.584477 30.233 1.3055V3.52487H14.0649V1.3055C14.0649 0.584477 13.4811 0 12.761 0C12.0409 0 11.4571 0.584477 11.4571 1.3055V3.52487H2.03601H1.30389C0.583756 3.52487 0 4.10934 0 4.83036V5.59482V16.0427V40.871C0 42.0124 0.913375 42.9409 2.03601 42.9409H20.041C20.7612 42.9409 21.3449 42.3565 21.3449 41.6354C21.3449 40.9144 20.7611 40.3299 20.0409 40.3299ZM2.60777 6.13586H11.4571V8.35523C11.4571 9.07625 12.0409 9.66073 12.761 9.66073C13.4811 9.66073 14.0649 9.07633 14.0649 8.35523V6.13586H30.2329V8.35523C30.2329 9.07625 30.8166 9.66073 31.5368 9.66073C32.2569 9.66073 32.8407 9.07633 32.8407 8.35523V6.13586H41.3858V14.7372H2.60777V6.13586ZM34.662 21.9088C27.6471 21.9088 21.9403 27.6228 21.9403 34.6464C21.9403 41.6698 27.6471 47.3837 34.662 47.3837C41.6768 47.3837 47.3837 41.6697 47.3837 34.6464C47.3837 27.6228 41.6768 21.9088 34.662 21.9088ZM34.662 44.7727C29.0852 44.7727 24.548 40.23 24.548 34.6462C24.548 29.0623 29.0851 24.5197 34.662 24.5197C40.2388 24.5197 44.776 29.0623 44.776 34.6462C44.776 40.23 40.2388 44.7727 34.662 44.7727ZM16.1511 31.6395H7.28476C6.56455 31.6395 5.98087 32.2239 5.98087 32.945C5.98087 33.6659 6.56455 34.2504 7.28476 34.2504H16.1511C16.8713 34.2504 17.455 33.6659 17.455 32.945C17.4549 32.2239 16.8712 31.6395 16.1511 31.6395ZM16.1511 24.2673H7.28476C6.56455 24.2673 5.98087 24.8518 5.98087 25.5727C5.98087 26.2938 6.56455 26.8782 7.28476 26.8782H16.1511C16.8713 26.8782 17.455 26.2938 17.455 25.5727C17.4549 24.8518 16.8712 24.2673 16.1511 24.2673ZM41.6051 33.3409H35.9659V30.2078C35.9659 29.4867 35.3822 28.9023 34.662 28.9023C33.9419 28.9023 33.3582 29.4867 33.3582 30.2078V34.6464C33.3582 35.3674 33.9419 35.9518 34.662 35.9518H41.6051C42.3253 35.9518 42.909 35.3674 42.909 34.6464C42.9091 33.9253 42.3253 33.3409 41.6051 33.3409Z" fill="#F9AB04"></path></svg>