<svg xmlns="http://www.w3.org/2000/svg" width="49" height="48" viewBox="0 0 49 48" fill="none"><path d="M24.1667 47.2974C17.8631 47.2974 11.9211 46.33 7.4354 44.5735C2.64063 42.696 0 40.0773 0 37.1998C0 35.7436 0.698548 33.5729 4.02647 31.5008C6.38264 30.0337 9.68471 28.8526 13.5758 28.0851C14.1408 27.9736 14.6892 28.3413 14.8007 28.9063C14.9121 29.4714 14.5444 30.0197 13.9794 30.1312C6.86533 31.5344 2.0856 34.3751 2.0856 37.1998C2.0856 39.1312 4.31274 41.111 8.19586 42.6315C12.4452 44.2955 18.1171 45.2118 24.1667 45.2118C30.2164 45.2118 35.8882 44.2955 40.1375 42.6315C44.0208 41.111 46.2479 39.1312 46.2479 37.1998C46.2479 34.338 41.3826 31.4807 34.1411 30.0897C33.5755 29.9811 33.2051 29.4345 33.3138 28.869C33.4224 28.3033 33.9692 27.9329 34.5345 28.0416C38.4837 28.8002 41.839 29.9815 44.2376 31.4578C47.6228 33.5414 48.3334 35.7303 48.3334 37.1998C48.3334 40.0773 45.6928 42.696 40.898 44.5735C36.4122 46.3301 30.4702 47.2974 24.1667 47.2974ZM24.1674 37.6054C23.8606 37.6054 23.5568 37.4707 23.3509 37.212C18.4123 31.009 15.5219 25.6909 13.9669 22.322C12.3393 18.7958 11.7912 16.6224 11.727 16.3555C11.4175 15.2371 11.2606 14.0767 11.2606 12.9061C11.2606 9.45876 12.603 6.21777 15.0407 3.7801C17.4783 1.34243 20.7193 0 24.1667 0C24.7426 0 25.2094 0.466832 25.2094 1.04277C25.2094 1.61866 24.7426 2.08554 24.1667 2.08554C18.2002 2.08554 13.3461 6.93965 13.3461 12.9061C13.3461 13.8945 13.4791 14.8735 13.7415 15.8158L13.7529 15.8603C13.7575 15.88 14.2652 18.007 15.8966 21.526C17.4025 24.7747 20.2013 29.9077 24.9825 35.9131C25.3412 36.3636 25.2668 37.0197 24.8162 37.3784C24.6243 37.5311 24.395 37.6054 24.1674 37.6054ZM24.3768 37.6054C24.1492 37.6054 23.92 37.5311 23.728 37.3783C23.2775 37.0196 23.203 36.3636 23.5618 35.9131C32.7438 24.3801 34.7719 15.9441 34.7913 15.8603L34.8027 15.8158C35.0651 14.8734 35.1981 13.8944 35.1981 12.9061C35.1981 6.93965 30.3441 2.08554 24.3775 2.08554C23.8016 2.08554 23.3348 1.61866 23.3348 1.04277C23.3348 0.466833 23.8016 4.09185e-07 24.3775 4.09185e-07C27.8249 4.09185e-07 31.0659 1.34249 33.5035 3.7801C35.9412 6.21777 37.2836 9.45876 37.2836 12.9061C37.2836 14.0766 37.1267 15.237 36.8172 16.3554C36.7531 16.6221 36.205 18.7956 34.5773 22.322C33.0223 25.6909 30.1319 31.009 25.1933 37.212C24.9874 37.4706 24.6836 37.6054 24.3768 37.6054ZM24.1667 19.6493C20.751 19.6493 17.9723 16.8706 17.9723 13.4549C17.9723 10.0393 20.751 7.26054 24.1667 7.26054C27.5822 7.26054 30.3611 10.0393 30.3611 13.4549C30.3611 16.8706 27.5822 19.6493 24.1667 19.6493ZM24.1667 9.34603C21.9011 9.34603 20.0578 11.1893 20.0578 13.4549C20.0578 15.7205 21.9011 17.5637 24.1667 17.5637C26.4323 17.5637 28.2755 15.7205 28.2755 13.4549C28.2755 11.1893 26.4323 9.34603 24.1667 9.34603Z" fill="#F9AB04"></path></svg>