<svg xmlns="http://www.w3.org/2000/svg" width="40" height="40" viewBox="0 0 40 40" fill="none"><path d="M32.7273 30C32.7273 30.5009 32.3191 30.9091 31.8182 30.9091H29.091V14.5454H31.8182C32.3192 14.5454 32.7273 14.9536 32.7273 15.4545V30ZM7.27279 30V15.4545C7.27279 14.9536 7.681 14.5454 8.18189 14.5454H10.9092V30.9091H8.18189C7.68096 30.9091 7.27279 30.5009 7.27279 30ZM14.5455 9.99997C14.5455 9.49907 14.9537 9.09087 15.4546 9.09087H24.5455C25.0464 9.09087 25.4546 9.49907 25.4546 9.99997V12.7272H14.5455V9.99997ZM12.7273 30.9091V14.5454H27.2728V30.9091H12.7273ZM31.8182 12.7272H27.2728V9.99997C27.2728 8.49634 26.0492 7.27271 24.5455 7.27271H15.4546C13.951 7.27271 12.7273 8.49634 12.7273 9.99997V12.7272H8.18189C6.67822 12.7272 5.45459 13.9509 5.45459 15.4545V30C5.45459 31.5036 6.67822 32.7272 8.18189 32.7272H31.8182C33.3219 32.7272 34.5455 31.5036 34.5455 30V15.4545C34.5455 13.9509 33.3219 12.7272 31.8182 12.7272Z" fill="#221816"></path></svg>