<svg xmlns="http://www.w3.org/2000/svg" width="31" height="30" viewBox="0 0 31 30" fill="none"><g clip-path="url(#clip0_110_3176)"><path d="M15.9712 30C24.2555 30 30.9712 23.2843 30.9712 15C30.9712 6.71573 24.2555 0 15.9712 0C7.68692 0 0.971191 6.71573 0.971191 15C0.971191 23.2843 7.68692 30 15.9712 30Z" fill="black"></path><path d="M20.9661 8H23.4965L17.969 13.9302L24.4712 22H19.3798L15.3915 17.1058L10.8292 22H8.29648L14.2094 15.6568L7.97119 8H13.1923L16.7963 12.473L20.9661 8ZM20.0775 20.579H21.48L12.4297 9.34633H10.9259L20.0775 20.579Z" fill="white"></path></g><defs><clipPath id="clip0_110_3176"><rect width="30" height="30" fill="white" transform="translate(0.971191)"></rect></clipPath></defs></svg>