<svg xmlns="http://www.w3.org/2000/svg" width="80" height="80" viewBox="0 0 80 80" fill="none"><path d="M52.76 59.932H52.708C52.3928 59.9257 52.082 59.8574 51.7932 59.731C51.5044 59.6046 51.2433 59.4225 51.0249 59.1952C50.8065 58.9679 50.635 58.6998 50.5202 58.4061C50.4055 58.1125 50.3497 57.7992 50.356 57.484V57.244C50.356 54.5186 49.2734 51.9049 47.3463 49.9777C45.4191 48.0506 42.8054 46.968 40.08 46.968C37.3547 46.968 34.7409 48.0506 32.8138 49.9777C30.8867 51.9049 29.804 54.5186 29.804 57.244V57.484C29.8104 57.7992 29.7546 58.1125 29.6398 58.4061C29.5251 58.6998 29.3536 58.9679 29.1352 59.1952C28.9168 59.4225 28.6557 59.6046 28.3669 59.731C28.0781 59.8574 27.7672 59.9257 27.452 59.932H27.404C26.7757 59.9321 26.1725 59.6858 25.7237 59.2461C25.275 58.8063 25.0166 58.2081 25.004 57.58V57.5V57.244C25.004 53.2456 26.5924 49.4109 29.4197 46.5836C32.247 43.7563 36.0816 42.168 40.08 42.168C44.0784 42.168 47.9131 43.7563 50.7404 46.5836C53.5677 49.4109 55.156 53.2456 55.156 57.244V57.6C55.1383 58.2239 54.8782 58.8165 54.4309 59.2518C53.9836 59.6872 53.3842 59.9312 52.76 59.932Z" fill="#F9AB04"></path><path d="M74 55.3802H63.232V35.7802H68.996C69.4997 35.7802 69.9907 35.6217 70.3993 35.3272C70.8079 35.0326 71.1136 34.617 71.2728 34.1391C71.4321 33.6613 71.437 33.1454 71.2868 32.6646C71.1366 32.1838 70.839 31.7624 70.436 31.4602L41.532 9.68418C41.1159 9.37071 40.609 9.20117 40.088 9.20117C39.567 9.20117 39.0602 9.37071 38.644 9.68418L9.74 31.4402C9.33563 31.7434 9.03731 32.1666 8.88759 32.6494C8.73787 33.1321 8.7444 33.6498 8.90623 34.1287C9.06806 34.6075 9.37693 35.023 9.78882 35.316C10.2007 35.609 10.6946 35.7644 11.2 35.7602H16.948V55.3602H6.176C5.53948 55.3602 4.92903 55.613 4.47894 56.0631C4.02886 56.5132 3.776 57.1237 3.776 57.7602V68.4162C3.776 69.0527 4.02886 69.6632 4.47894 70.1132C4.92903 70.5633 5.53948 70.8162 6.176 70.8162H74C74.6365 70.8162 75.247 70.5633 75.6971 70.1132C76.1471 69.6632 76.4 69.0527 76.4 68.4162V57.7802C76.4 57.1437 76.1471 56.5332 75.6971 56.0831C75.247 55.633 74.6365 55.3802 74 55.3802ZM40.088 14.6042L61.816 30.9602H18.364L40.088 14.6042ZM21.748 36.1322H58.432V55.3802H21.748V36.1322ZM71.6 66.0362H8.576V60.1802H71.6V66.0362Z" fill="#221816"></path></svg>