<svg xmlns="http://www.w3.org/2000/svg" width="80" height="80" viewBox="0 0 80 80" fill="none"><path d="M52.4125 60H7.4125V5H52.4125V60ZM12.4125 55H47.4125V10H12.4125V55Z" fill="#F9AB04"></path><path d="M27.4125 0H32.4125V7.5H27.4125V0ZM2.4125 55H57.4125V60H2.4125V55Z" fill="#F9AB04"></path><path d="M17.4125 80H12.4125L12.4875 76.9L17.4875 56.875L22.3375 58.1L17.4125 77.8V80ZM47.4375 80H42.4375V77.8L37.5125 58.1L42.3625 56.875L47.4375 77.5V80ZM27.4125 60H32.4125V80H27.4125V60ZM77.5875 55H72.5875V12.5C72.5875 11.837 72.3241 11.2011 71.8553 10.7322C71.3864 10.2634 70.7506 10 70.0875 10C69.4245 10 68.7886 10.2634 68.3197 10.7322C67.8509 11.2011 67.5875 11.837 67.5875 12.5V55H62.5875V12.5C62.5875 10.5109 63.3777 8.60322 64.7842 7.1967C66.1907 5.79018 68.0984 5 70.0875 5C72.0766 5 73.9843 5.79018 75.3908 7.1967C76.7973 8.60322 77.5875 10.5109 77.5875 12.5V55ZM70.0875 79.4L68.0375 76.425C66.4125 74.05 62.5875 68.2 62.5875 65C62.5875 63.0109 63.3777 61.1032 64.7842 59.6967C66.1907 58.2902 68.0984 57.5 70.0875 57.5C72.0766 57.5 73.9843 58.2902 75.3908 59.6967C76.7973 61.1032 77.5875 63.0109 77.5875 65C77.5875 68.2 73.7875 74.05 72.1625 76.425L70.0875 79.4ZM70.0875 62.5C69.4245 62.5 68.7886 62.7634 68.3197 63.2322C67.8509 63.7011 67.5875 64.337 67.5875 65C68.1364 66.9107 68.9799 68.7242 70.0875 70.375C71.2167 68.7364 72.0618 66.9193 72.5875 65C72.5875 64.337 72.3241 63.7011 71.8553 63.2322C71.3864 62.7634 70.7506 62.5 70.0875 62.5ZM34.9125 30C33.4291 30 31.9791 29.5601 30.7457 28.736C29.5124 27.9119 28.5511 26.7406 27.9834 25.3701C27.4158 23.9997 27.2672 22.4917 27.5566 21.0368C27.846 19.582 28.5603 18.2456 29.6092 17.1967C30.6581 16.1478 31.9945 15.4335 33.4493 15.1441C34.9042 14.8547 36.4122 15.0032 37.7826 15.5709C39.1531 16.1386 40.3244 17.0999 41.1485 18.3332C41.9726 19.5666 42.4125 21.0166 42.4125 22.5C42.4125 24.4891 41.6223 26.3968 40.2158 27.8033C38.8093 29.2098 36.9016 30 34.9125 30ZM34.9125 20C34.4181 20 33.9347 20.1466 33.5236 20.4213C33.1125 20.696 32.792 21.0865 32.6028 21.5433C32.4136 22.0001 32.3641 22.5028 32.4605 22.9877C32.557 23.4727 32.7951 23.9181 33.1447 24.2678C33.4944 24.6174 33.9398 24.8555 34.4248 24.952C34.9097 25.0484 35.4124 24.9989 35.8692 24.8097C36.326 24.6205 36.7165 24.3 36.9912 23.8889C37.2659 23.4778 37.4125 22.9945 37.4125 22.5C37.4125 21.837 37.1491 21.2011 36.6803 20.7322C36.2114 20.2634 35.5756 20 34.9125 20ZM42.4375 50H38.8875L29.9125 41.025L20.9625 50H17.4125V45H18.8875L29.9125 33.95L40.9625 45H42.4375V50Z" fill="#221816"></path></svg>