<svg xmlns="http://www.w3.org/2000/svg" width="80" height="80" viewBox="0 0 80 80" fill="none"><path d="M19.9889 37.4931C19.55 37.4933 19.1215 37.6265 18.76 37.8753L9.88664 43.7865C9.58139 43.9914 9.33116 44.2682 9.15795 44.5925C8.98474 44.9169 8.89387 45.2788 8.89331 45.6465V68.8798C8.89331 70.1153 9.89331 71.1153 11.1289 71.1153H19.9955C21.2311 71.1153 22.2311 70.1153 22.2311 68.8798V39.7287C22.2287 39.1353 21.9915 38.5671 21.5714 38.1481C21.1512 37.7292 20.5822 37.4937 19.9889 37.4931ZM17.7822 66.6665H13.3378V46.8287L17.7822 43.8642V66.6642V66.6665ZM53.3311 20.002C53.3311 19.4126 53.5652 18.8474 53.982 18.4307C54.3987 18.0139 54.9639 17.7798 55.5533 17.7798C56.1427 17.7798 56.7079 18.0139 57.1247 18.4307C57.5414 18.8474 57.7755 19.4126 57.7755 20.002V24.4465C57.7755 25.0358 57.5414 25.6011 57.1247 26.0178C56.7079 26.4345 56.1427 26.6687 55.5533 26.6687C54.9639 26.6687 54.3987 26.4345 53.982 26.0178C53.5652 25.6011 53.3311 25.0358 53.3311 24.4465V19.9998V20.002ZM53.3311 33.3331C53.3311 32.7437 53.5652 32.1785 53.982 31.7618C54.3987 31.345 54.9639 31.1109 55.5533 31.1109C56.1427 31.1109 56.7079 31.345 57.1247 31.7618C57.5414 32.1785 57.7755 32.7437 57.7755 33.3331V37.7776C57.7755 38.3669 57.5414 38.9322 57.1247 39.3489C56.7079 39.7657 56.1427 39.9998 55.5533 39.9998C54.9639 39.9998 54.3987 39.7657 53.982 39.3489C53.5652 38.9322 53.3311 38.3669 53.3311 37.7776V33.3331Z" fill="#F9AB04"></path><path d="M64.7978 8.89355H50.7555C49.0817 8.89355 47.4765 9.55847 46.2929 10.742C45.1093 11.9256 44.4444 13.5309 44.4444 15.2047V64.7958C44.4444 66.4696 45.1093 68.0748 46.2929 69.2584C47.4765 70.442 49.0817 71.1069 50.7555 71.1069H64.7978C66.4716 71.1069 68.0768 70.442 69.2604 69.2584C70.4439 68.0748 71.1089 66.4696 71.1089 64.7958V15.2047C71.1089 13.5309 70.4439 11.9256 69.2604 10.742C68.0768 9.55847 66.4716 8.89355 64.7978 8.89355ZM66.6644 64.7958C66.6644 65.8247 65.8244 66.6624 64.7978 66.6624H50.7555C50.261 66.6607 49.7872 66.4635 49.4375 66.1138C49.0879 65.7641 48.8906 65.2903 48.8889 64.7958V15.2047C48.8889 14.178 49.7289 13.338 50.7555 13.338H64.7978C65.8244 13.338 66.6644 14.178 66.6644 15.2047V64.7958ZM37.7644 37.4936C37.3256 37.4937 36.8971 37.627 36.5355 37.8758L27.6689 43.7847C27.3636 43.9896 27.1134 44.2664 26.9402 44.5908C26.767 44.9151 26.6761 45.277 26.6755 45.6447V68.8802C26.6755 70.1158 27.6755 71.1158 28.9111 71.1158H37.7778C39.0133 71.1158 40.0133 70.1158 40.0133 68.878V39.7291C40.0086 39.1353 39.7698 38.5674 39.3487 38.1488C38.9275 37.7302 38.3582 37.4947 37.7644 37.4936ZM35.5555 43.8602V66.6669H31.1111V46.8291L35.5555 43.8624V43.8602Z" fill="#221816"></path></svg>