<svg xmlns="http://www.w3.org/2000/svg" width="80" height="80" viewBox="0 0 80 80" fill="none"><path d="M45.5859 47.2188H34.3828C33.7422 47.2188 33.2266 46.7031 33.2266 46.0625V42.8672L28.7109 38.3516C28.4922 38.1328 28.3672 37.8438 28.3672 37.5312V29.9922C28.3672 29.6797 28.4922 29.3828 28.7188 29.1641L32.6172 25.3437C32.8359 25.125 33.125 25.0078 33.4297 25.0078H35.375C36.0156 25.0078 36.5312 25.5234 36.5312 26.1641V30.3437L39.9141 32.9219L43.3672 30.1172V26.1562C43.3672 25.5156 43.8828 25 44.5234 25H46.5391C46.8828 25 47.1953 25.1484 47.4219 25.3984L51.2187 29.7969C51.4062 30.0078 51.5 30.2734 51.5 30.5547V37.7187C51.5 38.0312 51.375 38.3203 51.1562 38.5391L46.7344 42.9609V46.0625C46.7422 46.7031 46.2266 47.2188 45.5859 47.2188ZM35.5469 44.8984H44.4219V42.4766C44.4219 42.1641 44.5469 41.875 44.7656 41.6562L49.1875 37.2344V30.9844L46.0156 27.3125H45.6797V30.6719C45.6797 31.0234 45.5234 31.3516 45.2578 31.5703L40.6641 35.2969C40.25 35.6406 39.6562 35.6484 39.2266 35.3203L34.6562 31.8359C34.3672 31.6172 34.2031 31.2813 34.2031 30.9141V27.3125H33.8828L30.6797 30.4609V37.0469L35.1953 41.5625C35.4141 41.7812 35.5391 42.0703 35.5391 42.3828L35.5469 44.8984Z" fill="#F9AB04"></path><path d="M67.1797 40.8518V15.3674C67.1797 14.2737 66.4141 13.3283 65.3516 13.1018L41.75 8.06272C40.2109 7.60178 38.9766 7.82834 38.3828 8.00803L14.5312 13.1018C13.4687 13.3362 12.7031 14.2737 12.7031 15.3674V40.8518C12.6953 41.3908 12.7422 46.1174 15.8984 52.1565C17.7812 55.7815 20.4219 59.1721 23.7188 62.2502C27.7812 66.0471 32.8828 69.3596 38.875 72.1018C39.1953 72.2502 39.5156 72.3127 39.8438 72.3127C39.8828 72.3127 39.9219 72.3127 39.9609 72.3049C40 72.3049 40.0391 72.3127 40.0781 72.3127C40.4062 72.3127 40.7266 72.2424 41.0469 72.1018C47.0391 69.3518 52.1328 66.0393 56.2031 62.2502C59.5 59.1721 62.1328 55.7737 64.0234 52.1565C67.1406 46.1174 67.1875 41.3987 67.1797 40.8518ZM59.7344 50.2893C56.0703 57.1408 49.2344 63.0783 39.9375 67.5002C30.6406 63.0705 23.8125 57.1408 20.1406 50.2893C17.3672 45.1018 17.3359 41.1174 17.3359 40.9221V17.2502L39.7656 12.4612C39.8281 12.4455 39.8828 12.4299 39.9375 12.4143C39.9922 12.4299 40.0547 12.4455 40.1094 12.4612L62.5391 17.2424V40.9221C62.5391 41.1096 62.5078 45.094 59.7344 50.2893Z" fill="#221816"></path></svg>