<svg xmlns="http://www.w3.org/2000/svg" width="24" height="24" viewBox="0 0 24 24" fill="none"><g clip-path="url(#clip0_1_59)"><path d="M11.6341 19.5694L3.46335 11.1296L5.55782 9.42452L10.2821 13.1881C12.2182 10.8495 16.516 6.20934 22.4457 2.51905L22.9451 3.68818C17.5023 8.76548 13.046 15.9161 11.6334 19.57M21.9501 10.3532C22.0393 10.8963 22.0843 11.4458 22.0846 11.9961C22.0839 17.5657 17.5705 22.0804 12.0023 22.0804C6.43408 22.0804 1.921 17.5657 1.921 11.9961C1.921 6.42656 6.43441 1.91348 12.0023 1.91348C13.3048 1.91143 14.5953 2.16268 15.8019 2.65321V0.635744C13.3971 -0.1714 10.7982 -0.194898 8.37925 0.568633C5.96026 1.33216 3.84583 2.84336 2.34017 4.8848C0.834512 6.92624 0.0152442 9.39268 0.000240334 11.9293C-0.0147635 14.4658 0.77527 16.9418 2.25667 19.0009C3.73808 21.06 5.83448 22.5961 8.24427 23.3882C10.6541 24.1803 13.253 24.1876 15.6672 23.4089C18.0813 22.6303 20.1863 21.1059 21.6791 19.0551C23.172 17.0043 23.9758 14.5327 23.975 11.9961C23.9752 11.4466 23.938 10.8977 23.8637 10.3532H21.9501Z" fill="#F9AB04"></path></g><defs><clipPath id="clip0_1_59"><rect width="24" height="24" fill="white"></rect></clipPath></defs></svg>