<svg xmlns="http://www.w3.org/2000/svg" width="18" height="21" viewBox="0 0 18 21" fill="none"><path d="M17.6772 13.066L9.987 2.57763C9.63345 2.03932 8.86563 2.02696 8.48802 2.55264L0.395635 13.041C-0.0432323 13.6666 0.38333 14.543 1.13911 14.543H4.94153V19.4118C4.94153 20.1503 5.52642 20.7636 6.25786 20.7636H11.7542C12.4731 20.7636 13.0703 20.1629 13.0703 19.4118V14.543H16.9093C17.6528 14.543 18.0917 13.6919 17.6772 13.066Z" fill="white"></path><path d="M1.19984 2.12743H16.7995C17.3723 2.12743 17.8355 1.65174 17.8355 1.06372C17.8355 0.475695 17.3723 0 16.7995 0H1.19984C0.626992 0 0.164062 0.475695 0.164062 1.06372C0.164062 1.65174 0.627266 2.12743 1.19984 2.12743Z" fill="white"></path></svg>