<svg xmlns="http://www.w3.org/2000/svg" width="40" height="40" viewBox="0 0 40 40" fill="none"><path d="M19.4452 3.97838C10.5385 3.97838 3.31836 11.1985 3.31836 20.1052C3.31836 29.0108 10.5385 36.2307 19.4452 36.2307C28.3517 36.2307 35.5716 29.0108 35.5716 20.1052C35.5716 11.1985 28.3517 3.97838 19.4452 3.97838ZM19.4452 35.4446C10.9731 35.4446 4.10521 28.5766 4.10521 20.1055C4.10521 11.6334 10.9731 4.76546 19.4452 4.76546C27.9175 4.76546 34.7852 11.6334 34.7852 20.1055C34.7852 28.5766 27.9175 35.4446 19.4452 35.4446Z" fill="#F9AB04"></path><path d="M27.1896 13.034H11.7012C10.7731 13.034 10.0176 13.7891 10.0176 14.7176V25.4922C10.0176 26.42 10.7728 27.1755 11.7012 27.1755H27.1896C28.1177 27.1755 28.873 26.42 28.873 25.4922V14.7174C28.873 13.7891 28.1177 13.034 27.1896 13.034ZM22.0652 19.6801L28.1586 14.5485C28.1677 14.5408 28.1719 14.5304 28.1798 14.5218C28.1923 14.5852 28.1995 14.6505 28.1995 14.7174V25.4919C28.1995 25.5895 28.1814 25.6813 28.1556 25.7707L22.0652 19.6801ZM27.1896 13.7073C27.4475 13.7073 27.681 13.8076 27.8596 13.967C27.8115 13.9793 27.7651 13.9991 27.7246 14.0332L19.4454 21.0059L17.4289 19.3077C17.4238 19.3017 17.4217 19.294 17.4159 19.2884C17.4017 19.274 17.3838 19.268 17.368 19.2568L11.1657 14.0334C11.1253 13.9995 11.0788 13.9796 11.0307 13.9677C11.2096 13.8076 11.4428 13.7073 11.7009 13.7073H27.1896ZM10.6913 25.4922V14.7174C10.6913 14.6502 10.6985 14.585 10.7108 14.5218C10.7192 14.5299 10.7234 14.5408 10.7322 14.5485L16.675 19.5535L10.6952 25.5338C10.695 25.5196 10.6913 25.5061 10.6913 25.4922ZM11.7012 26.502C11.3845 26.502 11.1046 26.3527 10.9194 26.1236C11.0052 26.1231 11.0902 26.0904 11.1555 26.0256L17.1924 19.9891L19.2286 21.7033C19.2449 21.7173 19.2637 21.7238 19.2811 21.734C19.2937 21.741 19.3048 21.7496 19.3179 21.7554C19.359 21.7721 19.402 21.7828 19.4454 21.7828C19.4888 21.7828 19.5316 21.7721 19.5727 21.7554C19.5859 21.7498 19.5966 21.741 19.6092 21.7345C19.6273 21.7242 19.6461 21.7177 19.6624 21.7033L21.5481 20.1159L27.7353 26.3025C27.7439 26.3111 27.7546 26.3143 27.7632 26.3213C27.6004 26.4344 27.4029 26.5016 27.1896 26.5016H11.7012V26.502Z" fill="#F9AB04"></path></svg>