<svg xmlns="http://www.w3.org/2000/svg" width="40" height="40" viewBox="0 0 40 40" fill="none"><path d="M19.7319 5.03523C11.8378 5.03523 5.4375 11.4356 5.4375 19.3296C5.4375 27.223 11.8378 33.6238 19.7319 33.6238C27.6257 33.6238 34.0261 27.223 34.0261 19.3296C34.0261 11.4356 27.6257 5.03523 19.7319 5.03523ZM19.7319 32.6709C12.3753 32.6709 6.39045 26.686 6.39045 19.3296C6.39045 11.973 12.3753 5.98818 19.7319 5.98818C27.0883 5.98818 33.0731 11.973 33.0731 19.3296C33.0731 26.686 27.0883 32.6709 19.7319 32.6709Z" fill="#F9AB04"></path><path d="M22.0247 21.3634C21.7237 21.3756 21.4734 21.4416 21.2728 21.4942C20.8875 21.596 20.5832 21.6766 19.4442 19.5263L19.3079 19.2678C18.1864 17.1514 18.4423 16.8955 18.5387 16.7988C18.5903 16.7471 18.647 16.6987 18.7057 16.648C18.7936 16.5712 18.8844 16.4912 18.9742 16.4019H18.9746C19.0644 16.3117 19.153 16.2125 19.2362 16.0994C19.8277 15.2995 19.4846 13.8688 19.2273 13.0874C18.9673 12.2964 18.5243 11.3127 17.8896 11.1169C17.4833 10.9926 16.2187 10.8819 15.2503 11.8497C14.8827 12.2178 14.6049 12.699 14.4263 13.2801C13.7023 15.6355 14.9642 18.519 16.2941 21.0289C17.6248 23.5397 19.3031 26.2035 21.6553 26.9257C23.2787 27.4255 24.2852 26.7363 24.7404 26.2813C25.1047 25.917 25.3188 25.5112 25.3914 25.2753C25.5477 24.7667 25.2535 24.0232 24.516 23.0655C24.0131 22.4126 23.02 21.3229 22.0247 21.3634ZM24.7082 25.0649C24.6659 25.2026 24.5049 25.506 24.235 25.776C23.9572 26.0538 23.4728 26.3856 22.7446 26.3856C22.4687 26.3856 22.1728 26.337 21.8656 26.2427C19.7616 25.5963 18.1873 23.0754 16.9254 20.6938C15.664 18.3137 14.4621 15.5959 15.1093 13.49C15.2531 13.0223 15.4709 12.6402 15.7562 12.3545C16.2549 11.8558 16.8445 11.7516 17.2506 11.7516C17.4633 11.7516 17.6212 11.7822 17.6807 11.8003C17.8221 11.8441 18.1888 12.2168 18.5485 13.3107C18.9022 14.3847 18.9454 15.2906 18.6616 15.6746C18.5997 15.7588 18.534 15.8313 18.4679 15.8974C18.3925 15.9719 18.313 16.0421 18.2357 16.1096C18.1566 16.178 18.0924 16.2344 18.0334 16.2934C17.4912 16.8383 17.6537 17.6726 18.6764 19.6022L18.8117 19.8595C19.7824 21.6914 20.3022 22.2498 21.0378 22.2498C21.2109 22.2498 21.3524 22.2127 21.4556 22.1852C21.6417 22.1363 21.8316 22.0865 22.0536 22.0778H22.0541C22.5566 22.0778 23.2731 22.6231 23.9497 23.5016C24.8105 24.6192 24.7212 25.0231 24.7082 25.0649Z" fill="#F9AB04"></path></svg>