<svg xmlns="http://www.w3.org/2000/svg" width="40" height="40" viewBox="0 0 40 40" fill="none"><path d="M20 33C16.0874 33 12.3993 32.4069 9.61507 31.3299C6.63901 30.1787 5 28.5731 5 26.8087C5 25.9159 5.43358 24.585 7.49919 23.3144C8.96163 22.4149 11.0112 21.6907 13.4263 21.2201C13.777 21.1518 14.1174 21.3772 14.1866 21.7237C14.2558 22.0701 14.0276 22.4064 13.6769 22.4747C9.26124 23.3351 6.29451 25.0768 6.29451 26.8087C6.29451 27.993 7.67687 29.2069 10.0871 30.1392C12.7246 31.1594 16.2451 31.7213 20 31.7213C23.755 31.7213 27.2754 31.1594 29.9129 30.1392C32.3232 29.2069 33.7055 27.993 33.7055 26.8087C33.7055 25.0541 30.6857 23.3022 26.191 22.4493C25.8399 22.3827 25.61 22.0475 25.6775 21.7008C25.7449 21.3539 26.0843 21.1269 26.4352 21.1935C28.8864 21.6586 30.969 22.3829 32.4578 23.2881C34.559 24.5656 35 25.9078 35 26.8087C35 28.5731 33.361 30.1787 30.3849 31.3299C27.6007 32.4069 23.9125 33 20 33ZM20.0004 27.0574C19.81 27.0574 19.6215 26.9748 19.4936 26.8162C16.4283 23.0129 14.6343 19.7522 13.6691 17.6865C12.6589 15.5245 12.3186 14.1919 12.2788 14.0282C12.0867 13.3425 11.9893 12.631 11.9893 11.9133C11.9893 9.79956 12.8226 7.81238 14.3356 6.31774C15.8486 4.8231 17.8603 4 20 4C20.3574 4 20.6472 4.28623 20.6472 4.63937C20.6472 4.99247 20.3574 5.27873 20 5.27873C16.2967 5.27873 13.2838 8.25499 13.2838 11.9133C13.2838 12.5193 13.3664 13.1196 13.5292 13.6973L13.5363 13.7246C13.5391 13.7367 13.8543 15.0408 14.8668 17.1985C15.8015 19.1904 17.5387 22.3377 20.5064 26.0198C20.729 26.2961 20.6828 26.6983 20.4031 26.9182C20.284 27.0119 20.1417 27.0574 20.0004 27.0574ZM20.1304 27.0574C19.9892 27.0574 19.8469 27.0119 19.7277 26.9182C19.4481 26.6983 19.4019 26.296 19.6245 26.0198C25.3237 18.9485 26.5826 13.776 26.5946 13.7246L26.6016 13.6973C26.7645 13.1195 26.8471 12.5193 26.8471 11.9133C26.8471 8.25499 23.8342 5.27873 20.1309 5.27873C19.7734 5.27873 19.4836 4.99247 19.4836 4.63937C19.4836 4.28623 19.7734 4 20.1309 4C22.2706 4 24.2822 4.82313 25.7953 6.31774C27.3083 7.81238 28.1415 9.79956 28.1415 11.9133C28.1415 12.6309 28.0441 13.3424 27.8521 14.0282C27.8123 14.1917 27.4721 15.5244 26.4618 17.6865C25.4966 19.7522 23.7026 23.0129 20.6372 26.8162C20.5094 26.9748 20.3208 27.0574 20.1304 27.0574ZM20 16.0478C17.8799 16.0478 16.1552 14.344 16.1552 12.2498C16.1552 10.1555 17.8799 8.45174 20 8.45174C22.12 8.45174 23.8448 10.1555 23.8448 12.2498C23.8448 14.344 22.12 16.0478 20 16.0478ZM20 9.73044C18.5937 9.73044 17.4497 10.8606 17.4497 12.2498C17.4497 13.6389 18.5937 14.7691 20 14.7691C21.4062 14.7691 22.5503 13.6389 22.5503 12.2498C22.5503 10.8606 21.4062 9.73044 20 9.73044Z" fill="#F9AB04"></path></svg>