<svg xmlns="http://www.w3.org/2000/svg" width="40" height="40" viewBox="0 0 40 40" fill="none"><path d="M6 35L8.82064 26.6591C7.55472 24.4864 6.88711 22.0029 6.88711 19.4564C6.88711 11.4851 13.4171 5 21.4436 5C23.4068 5 25.3123 5.38264 27.1072 6.13732C28.8403 6.86596 30.397 7.90872 31.7341 9.23664C33.0712 10.5645 34.1211 12.1106 34.8548 13.8317C35.6147 15.6143 36 17.5068 36 19.4565C36 27.4278 29.47 33.9129 21.4436 33.9129C19.0756 33.9129 16.7305 33.336 14.6425 32.242L6 35ZM21.4436 6.27356C14.1242 6.27356 8.16948 12.1874 8.16948 19.4564C8.16948 21.8705 8.8267 24.2214 10.07 26.2549L10.2246 26.5077L8.02352 33.0165L14.7742 30.8622L15.0167 30.9953C16.9762 32.0709 19.1986 32.6394 21.4436 32.6394C28.7629 32.6394 34.7176 26.7256 34.7176 19.4565C34.7176 12.1874 28.7629 6.27356 21.4436 6.27356ZM25.1726 27.0218C24.227 27.0218 22.5995 26.3611 21.7588 25.9894C21.7479 25.9898 21.737 25.99 21.726 25.99V25.9749C21.6156 25.9259 21.5056 25.8759 21.396 25.8251C20.1055 25.2433 18.9549 24.4316 17.8785 23.3437C16.8363 22.2905 15.9727 21.0884 15.2654 20.0514C14.3065 18.6502 13.8283 17.3317 13.8448 16.1333L13.8451 15.9711C13.887 14.6293 14.3712 13.5993 15.4153 12.6315C15.8332 12.2447 16.2895 12.0568 16.8106 12.0568C16.9583 12.0568 17.0953 12.073 17.2161 12.0873C17.3159 12.0991 17.4102 12.1103 17.494 12.1103C18.3942 12.1103 18.6491 12.575 18.8652 13.1381C18.9433 13.3277 19.2134 14.0368 19.4551 14.6949C19.9809 16.1267 19.9809 16.2295 19.9809 16.3596C19.9809 16.9682 19.3515 17.5997 17.9153 18.8957C17.5118 19.2598 16.902 19.81 16.7994 19.9772C16.8002 19.9759 16.8488 19.8947 16.8488 19.7612H16.6198C18.1611 21.9659 19.6059 23.5587 21.718 24.5688C22.0753 24.1701 22.6845 23.3216 23.0442 22.8207C23.4101 22.311 23.7558 21.8297 24.0541 21.4558C24.4989 20.8983 24.7965 20.6153 25.1888 20.6153C25.3252 20.6153 25.5792 20.6153 27.2801 21.4933C29.0026 22.3826 29.1088 22.5626 29.194 22.7073L29.2182 22.7483L29.2359 22.7924C29.3195 22.9998 29.3195 23.1978 29.3195 23.3042C29.3195 23.8981 29.1242 24.517 28.9605 24.9316L28.9571 24.94C28.6351 25.722 27.8686 26.2202 27.2823 26.5006C26.5995 26.8269 25.8108 27.0218 25.1726 27.0218ZM22.9389 25.1038C23.8229 25.4592 24.7202 25.7482 25.1726 25.7482C26.0818 25.7482 27.484 25.1429 27.7686 24.4616C27.9303 24.0513 28.0241 23.666 28.0359 23.367C27.4999 23.0253 25.9314 22.2167 25.3021 21.9555C25.0098 22.2769 24.4677 23.0318 24.0883 23.5601C23.6015 24.238 23.2344 24.739 22.9389 25.1038ZM15.1272 16.0011L15.1271 16.1472C15.1149 16.9641 15.4228 17.8883 16.0432 18.9C16.2744 18.659 16.6022 18.3598 17.0529 17.9531C17.4405 17.6033 17.8413 17.2417 18.1665 16.9143C18.4802 16.5986 18.6159 16.4207 18.673 16.333C18.5039 15.7884 17.8167 13.9526 17.6763 13.6158L17.6694 13.5984C17.6328 13.5027 17.6035 13.4319 17.5819 13.3865C17.5526 13.3846 17.5233 13.3837 17.4939 13.3838C17.3341 13.3838 17.1908 13.3669 17.0645 13.352C16.9667 13.3404 16.8822 13.3304 16.8106 13.3304C16.6442 13.3304 16.4991 13.3693 16.2899 13.5629C15.4977 14.2972 15.1602 15.0044 15.1272 16.0011Z" fill="#F9AB04"></path></svg>